/* XPM */
static char *a67b98287d524a7ce2c24962d8fdfa74jgbwhS9IEf7yEEUR[] = {
/* columns rows colors chars-per-pixel */
"64 64 135 2 ",
"   c #376F0A",
".  c #3B6F0B",
"X  c #3D730D",
"o  c #3F780F",
"O  c #3E7511",
"+  c #41760E",
"@  c #437A0E",
"#  c #427612",
"$  c #457B14",
"%  c #497E16",
"&  c #447718",
"*  c #477D18",
"=  c #4A7E19",
"-  c #4C7F20",
";  c #478017",
":  c #4B8116",
">  c #4D841C",
",  c #4F841C",
"<  c #4E851D",
"1  c #4F871C",
"2  c #4E851F",
"3  c #4F861E",
"4  c #4D821B",
"5  c #4F881F",
"6  c #508617",
"7  c #508519",
"8  c #518718",
"9  c #51841B",
"0  c #50851B",
"q  c #51861A",
"w  c #52871B",
"e  c #50831C",
"r  c #50831E",
"t  c #51841D",
"y  c #50851D",
"u  c #51861C",
"i  c #53861D",
"p  c #52871D",
"a  c #50841F",
"s  c #52851E",
"d  c #51861E",
"f  c #50871F",
"g  c #53861F",
"h  c #52871F",
"j  c #54871E",
"k  c #51861D",
"l  c #528819",
"z  c #51891A",
"x  c #50881B",
"c  c #528A1B",
"v  c #548A1B",
"b  c #51891C",
"n  c #50881D",
"m  c #53881C",
"M  c #528A1D",
"N  c #51891E",
"B  c #53881E",
"V  c #538B1E",
"C  c #528A1F",
"Z  c #54891D",
"A  c #54891F",
"S  c #558A1E",
"D  c #568B1F",
"F  c #568C1D",
"G  c #558D1E",
"H  c #578D1E",
"J  c #53891D",
"K  c #588E1F",
"L  c #4C8220",
"P  c #4F8620",
"I  c #4F8620",
"U  c #4F8821",
"Y  c #518320",
"T  c #518520",
"R  c #518521",
"E  c #528520",
"W  c #528621",
"Q  c #508422",
"!  c #538522",
"~  c #528423",
"^  c #528622",
"/  c #538722",
"(  c #548720",
")  c #558724",
"_  c #528621",
"`  c #518820",
"'  c #538820",
"]  c #528921",
"[  c #538B20",
"{  c #518822",
"}  c #558821",
"|  c #548921",
" . c #568920",
".. c #558A20",
"X. c #578A21",
"o. c #568B21",
"O. c #548823",
"+. c #558823",
"@. c #558A22",
"#. c #568B23",
"$. c #558D20",
"%. c #578C20",
"&. c #568E21",
"*. c #558D22",
"=. c #578C22",
"-. c #568E23",
";. c #548824",
":. c #558924",
">. c #548B25",
",. c #568A26",
"<. c #558C24",
"1. c #548A22",
"2. c #588B22",
"3. c #588C20",
"4. c #588D21",
"5. c #598C23",
"6. c #588D23",
"7. c #598E22",
"8. c #5A8F23",
"9. c #588D25",
"0. c #598E24",
"q. c #5A8F25",
"w. c #598E24",
"e. c #578E28",
"r. c #5B8E29",
"t. c #5A8E29",
"y. c #5A9322",
"u. c #5B9024",
"i. c #5A9225",
"p. c #5B9026",
"a. c #5C9127",
"s. c #5D9226",
"d. c #5B9125",
"f. c #5C912A",
"g. c #60952B",
/* pixels */
"<.+ : ; n M c &.y > % : y $ = = : $ : = L y % Z ! # > : n $ l v y.H ; ; 6 G @ ; $ ' 4 ' o > ; c 1 c G 1 % = e % $ = * * $ % = Q ",
"n > ; $ 1 6 > q : n y Z = 4 = X # y I 4 = y Z 9.&.< n y ....c : v l M 1 ; : 1 $ : ; < y : @ ; M : 1 : > 2.g Z $ ! $ X $ ..y e $ ",
": Z n $ $ > : n : d.% 4 # = 4 % < 1 % q = q ..9.d.4.: % $ = K 9 : @ : 1 ; o $ 1 : : n : -.: ; : 1 : 1 : d.$ 4 . y = 4 y < $ ! % ",
"H H 4.> 4 > c &.% Z &.$ - = ! $ : : X e y 4 % q Z d.e $ = $ % 7 G y.1 @ < $   ; : ; : &.u.v : : 1 M M ; 4.g $ 4 4 y $ q $ + e q ",
"G G 1 G : % n y % % i i = % = S y 4 4 q q 5.= 2.w ..- - i + = F : : 2.@ $ L - O n : n &.4.q &.% > c 4 $ 4 y y % = = g q : I : ..",
"c : G 1 n ..! ! # - = = $ + $ $ % 4 = y 2.D j D q 9.% + = + + i ..4.2.%   I * O > @ + 1 q 4.y ..y ..4 $ e % q + $ $ % e 4 4 y 4.",
"> M : $ % >.= = = ! = i i $ % $ % # = % g $ q : e D e $ j 5.+ S 4.n e w = ..t.# % H > 1 n $ $ % >.$ < : ! = g e $ $ % # # = % g ",
": > 1 < : $ O . e e i = = g e e ! # # 4 g D % : e : = S % 9 + @ 7 4.: 4.g e ! 4 > : : : > < 4 % # X X ! 4 4 = e ! = g = # $ e 2.",
"4 4 $ % ; $ $ * * # = - = 2.= = ! e ~ = : 4 : $ g : > $ % q : % q 7 w w Z : &.4 + $ 4 e = $ % 4 $ * * $ # e = = ) e = i i y = % ",
"..: + ! > > { & = = $ ,.- ! # = e 4 ! $ % ..% > Z n &.: + Z u.7 $ 7 H % n c % 4 : : y ..$ $ ..= < I # = & = ,.Q Q # i - = e $ e ",
">.= $ : 1 $ 4 # X = * * ! * = $ $ = + # q % v q Z : : : % v G H : Z 8 8 : v : : -.: % ! $ $ e 4 * : # # = = * ~ # = $ * * O $ e ",
"4 4 & * >.; ! = = - $ & - # ,.! = & 4 = >.: Z q e q > @ 1 : c l : : 6 F M v > ; > y % 4 4 # 4 ..$ ~ = = 4 # = = # e.e * $ 4 = e.",
",.g 2.4 % 2.! e $ 4 4 * = $ # ! * Q >.>.* 4 y ..$ X &.: + $ > > G : : $ [ $ $ 1 : $ : e.y <.: e <.! 4 * L = : * * * Q = Q e.! $ ",
"e e q g % % = e = ! 4 L ! + + ! = * = = # $ < ' % $ [ 9.: 4 1 c Z e 4 : > < X > ' 1 : I > ..4 $ % = - 4 U = ! 4 . # ) $ $ 4 * # ",
"= ..g 4.% = % - ~ Q ~ 4 = = # $ = 4 : : * O : : 4.4.@ 1 % q > n + % % % > : : ' > ; > : Z Z ..= = = ! L U U * 4 * # $ e > % = = ",
"4 = y q $ X.- = * * 4 $ = = = ,.* $ : ' $ : : > v v % c : + : : y 4 y y : > : 4 1 & ; ; 4 ! 4 = e.= = $ 4 L O = = 4 ..@ % n 4 = ",
"I & 4 : y @ $ = 4 * = = U 4 $ < $ : y 4.s.: % d.l : v % H q % e ....>.y = 4 4 : >.> > < $ 4 4 q # = = = $ : 4 U * & 4 $ e Z 4.4.",
"* ; = y ,.4 e e = ; O U L 4 = 4 { <.4.q u.G : g d.> 6 c $ n q q e y e % y 4 ' > > : : % : = g ..= y e 4 & O >.4 4 4 < ) 9.Z v u.",
"n > $ : % g q $ = 4 4 & * L * * X I & y q Z % 6 > : < s.% = $ g n Z ! y Z ' > c ; ; y g : $ = = y q $ = L * $ - 4 * O # Q $ q 7 ",
"% = 4.$ + $ : 2.& X & = O L 4 t.& O $ 4 y y q : : ' y $ $ $ = g &.' : Z 4.: @ c 1 < 7 $ 4 &.# X % g n # . = * # L I e.# # $ e 4 ",
"e g 4 e $ e % q : I I 4 $ e r.= < $ $ X e # $ : ' ..$ % $ $ ) * > U 4 ' y : % % ; : Z > < q 4 % 4 : < : I I = $ >.e.* L * O $ = ",
"$ y e = = i : Z $ O 4 $ & Q ) * * & ) $ = 4 $ = ......y e ) = = : 4 4 y = >.e y $ &.G $ ' $ > > < : ! o & * * = L ~ o * * ! * = ",
"7 e * $ $ $ 9.y = $ $ . * ,.$ & 4 I ! $ & < 4 O X # g % 4 t.& & = 4 = ..$ $ = - $ y ..< > * $ * = e.4 * $ o X = 4 $ = L ' 4 $ # ",
"$ e $ < I = = y = * ! * # = Q $   & = : ; : ' I $ e Z &.# O O 4 4 4 # ! >.= e $ e # = = : & ! 4 : * ~ = : U * # 4 L O X $ = = = ",
"4 # = ! ! = X $ e 4 4 ' $ = g # o o I ' 4 $ q q.! 4 6 s.1 > 4 = g...4 y : ' I * 4 4 e = $ = { > & O = Q = ..e $ = 4 X & & ' < : ",
"$ = L $ : & Q = = ! % > ! $ # + = * >.e.q 4 n Z Z Z H l X &.y $ q % Z : : { I # &.4 # $ = 4 & * & ~ * 4 ! % y y & # # * $ e.>.> ",
"= $ ! # : * c n > 4 : q.e @ # e L 4 4 4 e % 2.: : > > % ; : 4 $ y v n @ 1 ; : & $ < < * = 4 & U ; ' ! 4 4 4 t.$ o $ 4 e = 4 U : ",
",.>.y = o % > > > n 4 g 5.= = ,.; ; O $ $ e % q > G [ @ n $ $ 4 % 6 u.% > > > $ o 4 = I ' < : I $ $ q 4 ! $ ..y % 4 e.$ = O o > ",
"# $ $ e < $ $ > > y 4 % e Q = i = O * * o = 2.% : % q : % % y o % + Z : : 4 ! Z = : 4 $ * $ ! = $ $ 1 > ' * 4 4 L * L O X 4 O # ",
"4 $ = = 4 # < >.4 q = 4 4 # # - O O 4 & ,.% # ,.4 4 : 9.2.4 s.% : % 7 g : q % : $ 4 & $ & * 4 = $ U &.4 < : y = O & 4 . & 4 * e.",
"U * $ = # = ~ 4 ! % e 2.,.# e $ * = = * = = e $ 4 % Z ..Z e ! y % e $ % q % $ % = $ > n $ $ * O = ! = ! $ Z &.' $ 4 * * 4 * = = ",
"* 4 : $ 4 L I 4 % ..% d.Z $ $ i = ! > : ..# 5.2.s.4 ..% q q $ ..: e + y d.$ = 4 * $ s.# < ; * 4 Q 4 4 4 y > d.< # = ! 4 I : 4 ! ",
"$ # $ $ ; 4 = 4 n % = 4 q 4 $ ! % 4 * = 4 % q q.v H > ; < 4 e % 9.q ' d.1 ; ' ' = O * $ O * * 4 4 4 < ! % 4 : q % : y $ 4 $ 4 > ",
"= y q $ & ! 4 $ n : % $ y : @ ! $ y # < q 7 q % : u.$ $ < y * 4 < e a.q : < : < 4 e.= = L = $ % ~ : ; ' : $ % q % $ g # > $ n : ",
"* # $ >.> n = + : Z = $ $ 4 < : $ # ..e : $ $ = &.n d.: ! ' $ = $ : $ < * o $ ' o L 4 $ # = { < n & o : ! $ $ * 4 e % $ * ..> : ",
"Q X $ < g.q = % 4 4 4 % o & = = * : % % g g $ 4 $ X < n $ $ 4 % % $ n < * > < 9.o 4 4 >   4 { g.$ * * 4 4 e & O $ : = * 4 $ 4 Z ",
"> n $ = ..&.y >.= + = 4 ; > X o O * I o < ..= y M > 4 % G M n y G 1 M G & >.: : : 1 : U I & 4 a.' M ..% # 4 4 4 $ X * X I : $ < ",
"> > < $ : G $ y ! 4 4 ) ' > U * * & < > y t.....1 1 < $ M v G : 1 y.: y.v 1 : c 1 > [ > I 4 $ < [ + Z y = 4 >.e U 4 & # & U 4 ~ ",
"> O U ; % 1 c q &.4 ! % : & g y # ! 4 ' y s.: $ : > $ $ v l H G 6 c v 1 6 v 1 > > > $ * o U $ : n > v ..4 ) $ 4 & >.= * 4 ! ! ..",
">.o > $ n c > &.n 4 % = 4 # : % * * = : < n % 1 1 $ < : > % v v y.c : ; v G @ ; : 1 < I O I ; ' c c &.n = = = = o > * * * = 4 L ",
"1 > % $ > : 6 1 % j S K % - = + & < < < $ q y d.K 9 g w ! D y : 1 6 c 6 ; : 1 $ ; ; > c : ; * U : c q : j j ! @ ' $ X * ' < 4 $ ",
": 1 v $ : > : c % s.% = # = = % > > $ y 4 > Z u.g.K % % $ % &.q : ; : 1 $ # $ ' ; : G : &.4 $ : < : y : s.% - + ! : : < 4 $ n % ",
"H H G > 4 > 6 G = j 3.@ = 9 j % > : + 4 e 4 % y j u.= % = % % 7 G u.1 o < # X $ : ; : M u.Z > > > Z D % K 9 % = > < $ y $ + < < ",
"v H c G 4 % c 1 @ %  .j = = = w > : < 4 ! r.4 4.9 S i e e @ : Z : : M @ & 4 4 o M : 1 G Z w &.: : g e + 7 9 j % : : n y > < = &.",
"c : 4.G n n Z y @ - = - % + % % - = = e ..g q Z 9 K $ + 4 + # ' H K 2.$ . e $ & : $ o > : u.> M q ..= $ - % j + # % % = ; < > 4.",
"> n : $ % n : 4 = j = j - @ $ % = + = $ y $ q % 9 K = % y <.o n K v e ..= >.<.# ; 9.> > c : $ ; ..% e = i % j - $ $ = $ # = % n ",
": > 1 > = $ # . - j - - - j 9 = ! $ $ 4 ..Z % : w = = g % y X $ 6 Z : 4.g q g 4 > : > ; > > < ; & . + ! - i = - ! = i = + $ q ..",
": : $ * = $ * * = @ = - % 3.- % j - ! = % : : % j = w @ 4 4 4 : q 6 v v Z % 4.4 o # > > : $ $ : $ * $ $ # j - - X.= % ! i g = = ",
"&.: + ! 4 : ' $ = = $ ) = Q # = ! = ! $ % 2.$ : v w 4.: @ Z d.q : : v : n n $ > : : y 2.$ # Z : y 4 * L * * ~ - e # Q - - - $ % ",
"&.= $ : q $ 4 # . = * * ~ * = = * = # $ q % v q D : : : $ M 4.G : v l l : c > : <.: = y * $ y : % 4 # # * = * ~ $ - $ $ % + % e ",
": 4 $ % 2.% e = = L * * = # ,.! = $ 4 = ..; Z q e q > o < 1 c > ; : 1 M Z M 1 ; > n % 4 e # q Z $ y $ = = $ = = # ,.e = $ 4 % q.",
"2.Z ..4 = 2.! i * = = = = * # e = 4 >.! % : q Z $ X &.4 + @ > c G : : $ G @ @ 1 ; ; = 9.y 2.% 4 2.g - $ Q = = * $ $ ! = g q.g % ",
"e 4 y g % $ = - 4 ! 4 < ! O X >.4 O L = & $ > n : + D 4.4 > > n &.< 4 4 > : X > n n 4 q > M > % % = 4 4 ! 4 ' 4 X # >.$ $ 4 $ # ",
"* ..Z <.= 4 $ e ! 4 ~ 4 * = # * 4 4 4 * ; O : : -.&.@ v % : q n + % = % > > : [ : : y = ' ....% = $ ~ L ! ! = = $ & $ 4 e % = % ",
"= * ' 4 % >.e - * * L & = = $ ,.* $ : Z $ : : y G v : 6 > + % : g = q y $ < * 4 ! $ : = = ..4 = r.= = * = 4 & 4 : 4 n $ % Z e % ",
"! $ 4 : y $ $ = = $ 4 = ' 4 $ e $ : Z G s.> % d.q : 8 : H q $ q D ....e = 4 : : ..4 : < $ e = ! + = 4 = $ = 4 U = $ 4 $ 4 Z 5.5.",
"% % % g Z 4 q : = 4 O >.4 4 = L ,.,.2.w K D : 1 y.: > n $ ..y e e e e = y e Z > : > : : = : y ..: > : ; & # e.= L 4 e ! q...g 5.",
"< e $ % % q g $ = 4 * & * I * * . = $ w 7 F ; > > : c d.$ = $ g g Z e y Z Z q n : : y ..4 $ % % y > $ : 4 * * 4 4 * # # e $ g 7 ",
"% % ,.$ . $ : &.&   $ 4 O 4 = t.$ # $ Q e q y = : [ y $ $ $ = S v G 4 ..G % $ Z q > 6 % 4 ..# + ; c ' # X = * # 4 y ,.# # $ e e ",
"e v 4 e * y % y 4 > U 4 & ! r.= e * $ X e + $ : ' ' # $ % $ ,.$ : Z : ..y : % % % : g e e e = = : ; ' * I I * & >.9.= 4 = + + e ",
"$ q 4 : 4 I 4 ! & O = $ $ 4 ) = $ $ ) $ ; 4 $ = ' ' [ ' : ! e = = 4 : n 4 9.e y % 9.2.$ Z = Q = > : { # & ; & = 4 ! $ * % ..$ = ",
": g * * $ $ >.! * * $ o $ { # * L I < % # 4 4 + o O c : e t.$ & * 4 : Z $ @ % 4 $ y y y 4 $ $ * : <.L = * # X 4 L # = 4 ' 4 * O ",
"* > # ! I * = Q = = U $ # = ~ $ O & 4 : : 4 ..y $ q n H + # + - e e + y ..= 4 $ 4 # * = 4 & >.= = = ! = : ~ $ & 4 ! O X * = 4 = ",
"4 O = ! I = . * L 4 > ' # * L $ O & { ' ; # ! 4.! > v s.y ! = = g.D e y % Z e $ L : ! = & : { L & X = 4 = ! 4 $ = L o # & >.! $ "
};
