/* XPM */
static char *_d6eac6be46c4ab0979db1418760c62c2GBorELcb7R3qq28[] = {
/* columns rows colors chars-per-pixel */
"64 64 256 2 ",
"   c #367808",
".  c #452805",
"X  c #3E2103",
"o  c #407F0A",
"O  c #341B03",
"+  c #3B1F03",
"@  c #5D3605",
"#  c #412403",
"$  c #3E780C",
"%  c #2C1502",
"&  c #785F3A",
"*  c #663E07",
"=  c #336F09",
"-  c #39760B",
";  c #543104",
":  c #442403",
">  c #357309",
",  c #583304",
"<  c #317307",
"1  c #40830B",
"2  c #427C0D",
"3  c #512F04",
"4  c #377D08",
"5  c #492B03",
"6  c #633C05",
"7  c #2D6C07",
"8  c #4D2E04",
"9  c #327806",
"0  c #356A0B",
"q  c #45880E",
"w  c #6A4106",
"e  c #38730B",
"r  c #E3D5C0",
"t  c #8C5E18",
"y  c #3A6E0B",
"u  c #371D02",
"i  c #477A0F",
"p  c #794D08",
"a  c #241002",
"s  c #603804",
"d  c #482605",
"f  c #2D6F06",
"g  c #5A3605",
"h  c #301803",
"j  c #6F4505",
"k  c #615038",
"l  c #3A8108",
"z  c #4C2805",
"x  c #7F6949",
"c  c #3B7F0B",
"v  c #3B720B",
"b  c #281303",
"n  c #1F0D02",
"m  c #31690A",
"M  c #2E6708",
"N  c #3C7B08",
"B  c #457F0E",
"V  c #764A07",
"C  c #A8977F",
"Z  c #397A0C",
"A  c #48830D",
"S  c #3F7713",
"D  c #40730F",
"F  c #43760E",
"G  c #815409",
"H  c #7D500A",
"J  c #2D7405",
"K  c #447714",
"L  c #457D14",
"P  c #39670E",
"I  c #3B8508",
"U  c #4A7D19",
"Y  c #9D8C73",
"T  c #2A6109",
"R  c #448412",
"E  c #4A8D0C",
"W  c #44830C",
"Q  c #978874",
"!  c #734809",
"~  c #936313",
"^  c #5B4A31",
"/  c #DACAB4",
"(  c #815413",
")  c #613C0E",
"_  c #376E10",
"`  c #A29074",
"'  c #3E7D10",
"]  c #457215",
"[  c #4A8214",
"{  c #BEAE94",
"}  c #301502",
"|  c #875809",
" . c #764B11",
".. c #3E6F0F",
"X. c #2C5C0C",
"o. c #34610E",
"O. c #D8CFBD",
"+. c #715934",
"@. c #9C8A6B",
"#. c #E1D7C7",
"$. c #A8957A",
"%. c #70480F",
"&. c #99670C",
"*. c #8E7A5B",
"=. c #337D06",
"-. c #4A7D0F",
";. c #4D7715",
":. c #31640C",
">. c #B9A78C",
",. c #4D811E",
"<. c #51861C",
"1. c #AD9B80",
"2. c #5E3B07",
"3. c #A0907A",
"4. c #C6B7A1",
"5. c #905E0B",
"6. c #502B05",
"7. c #67553C",
"8. c #92816F",
"9. c #6D450E",
"0. c #97866C",
"q. c #847051",
"w. c #286508",
"e. c #3F8909",
"r. c #529016",
"t. c #CDC0A9",
"y. c #958364",
"u. c #527F16",
"i. c #9D8D79",
"p. c #92651D",
"a. c #58360D",
"s. c #7A5011",
"d. c #A49378",
"f. c #68420D",
"g. c #4C8813",
"h. c #897555",
"j. c #3D6A15",
"k. c #3D7214",
"l. c #438E09",
"z. c #588B16",
"x. c #B4A38A",
"c. c #D5C6AF",
"v. c #4E3311",
"b. c #DDCEB7",
"n. c #456C19",
"m. c #39230A",
"M. c #4C930D",
"N. c #AFA087",
"B. c #462D12",
"V. c #976718",
"C. c #A37015",
"Z. c #7C521D",
"A. c #9E6E24",
"S. c #875912",
"D. c #948571",
"F. c #A2927D",
"G. c #84591F",
"H. c #ECE1CE",
"J. c #826D4D",
"K. c #7F6642",
"L. c #4E8310",
"P. c #8D7C62",
"I. c #D5CAB6",
"U. c #508C10",
"Y. c #BFB19A",
"T. c #AE7B28",
"R. c #8A5C10",
"E. c #E6DDD1",
"W. c #DED1BC",
"Q. c #D2C2A9",
"!. c #6D5C41",
"~. c #A37630",
"^. c #54442B",
"/. c #82715E",
"(. c #F1E6D5",
"). c #7A6341",
"_. c #DDD3C0",
"`. c #4A880D",
"'. c #D3CABB",
"]. c #548411",
"[. c #CFC3AE",
"{. c #61911B",
"}. c #588522",
"|. c #CCBCA2",
" X c #A67422",
".X c #4C3A22",
"XX c #D0C7B1",
"oX c #537D25",
"OX c #9C6D1C",
"+X c #73624C",
"@X c #100601",
"#X c #6D522B",
"$X c #E8DAC8",
"%X c #976A27",
"&X c #8E7E6A",
"*X c #3C5D11",
"=X c #5B7818",
"-X c #B8AC92",
";X c #59401F",
":X c #60441B",
">X c #C4B294",
",X c #A3977D",
"<X c #569711",
"1X c #C4B59C",
"2X c #517221",
"3X c #6F9836",
"4X c #C9B89C",
"5X c #AB7616",
"6X c #170902",
"7X c #F2EADB",
"8X c #8B6125",
"9X c #9E6F2E",
"0X c #7A6954",
"qX c #48781F",
"wX c #A4AA76",
"eX c #67902C",
"rX c #61862C",
"tX c #918D61",
"yX c #795A29",
"uX c #8B7045",
"iX c #916927",
"pX c #B88525",
"aX c #644017",
"sX c #714B1A",
"dX c #4F6D14",
"fX c #C5BEA7",
"gX c #879A5B",
"hX c #7F9F46",
"jX c #6B7438",
"kX c #878953",
"lX c #A48E6C",
"zX c #736244",
"xX c #CCC6B6",
"cX c #8FA85E",
"vX c #7C934F",
"bX c #26560A",
"nX c #B1B287",
"mX c #684E29",
"MX c #75843E",
"NX c #9B9A6D",
"BX c #929F5E",
"VX c #423528",
"CX c #657B29",
"ZX c #936B31",
"AX c #94A575",
"SX c #BABC98",
"DX c #5F9B23",
"FX c #A68857",
"GX c #7F7F4B",
"HX c #9B7A46",
"JX c #8A774D",
"KX c #AF813B",
"LX c #B2843C",
"PX c #78733B",
"IX c #AC7B33",
"UX c #BE8C25",
/* pixels */
"R r.l.g.R I R NXt.1X1.$.@.h.y.*.J.x J.q.h.h.JXuXuX9.z a.: + g X O ^ P.P.+X^ ^ ^ ^.^.^.^.^ ^ ^ ^ ^ k k k k 7.zX!.zXy.0.0.Q 3.i.Q ",
"q E M.U r.M.eXN.[.-XlX@.h.J.q.h.x x J.q.q.HXT.V.s.z %Xp.3 + + ) g v.zX0.#X5 B.^.^..X.X.X^.^ ^ ^ k k k 7.k 7.!.!.!.y.Y Y Y F.3.i.",
"E q M.[ r.3XP.{ Y.@.*.*.q.x J.q.).).uXuXK.ZX5XH ; v.pXt h + m.f.8 : ) +.) 5 # B..Xm.h m..X^.^ k k k k k 7.7.7.zXx P.@.Y Y F.,Xi.",
"E q E <XhXy.` >X` *.h.q.x x q.x & ).LX~.yXiX9.# % ) T. .O a O @ . u 8 5 5 8 . m..Xh b % B.^.^ ^ k k 7.7.7.7.!.zXq.0.` ` d.F.,X3.",
"e.g.r.DXtX@.-XN.y.*.q.K.K.x J.& %XiXV.( , %.s.+ a . ) Z.6 O f.9.# % # # . 5 X u m.b a b m..X^.^ k 7.7.!.!.!.+X0X/.0.` d.d.,X,X3.",
"e.r.DXhX@.>.{ ` *.*.x ).K.x K.iX~ t ) a.Z. .9.: B.f.aX8X2.z OXV.a.2. .2.* # % + h a a a O u B.^.k 7.!.+X+X+X0X/.&X0.Y ` ` $.C 3.",
"l.r.3XtX$.4XN.0.h.q.).).K.K.& p. X~ 2.Z.IX( ; aXA.G f.) 3 + s.H 5 3 G g g . % h % h m.h u h . 8 v.7.+X0X/././.P.D.Y Y d.` $.C 3.",
"I DXBX0.{ >X1.P.h.K.& & +.& #Xt OX* 9. .OX( z aXR.6 d a.X b a.g % v.! d X } b h O m.. + O u 5 . 5 k 0X/.&X&X&X8.Q i.3.d.d.d.,X3.",
"=.3XY $.|.x.@.h.x & & +.yXA.t p.V 9.Z.w p , : B.t 6 a.G.+ aX%.@ h f.2.# b 6Xn a u . # % b O h % O k /.P.D.Q Q Q Q i.i.3.C C ,X3.",
"U vXd.Y.t.@.h.x ).& & +.8XT.T.t ; a.f.z 6.iXs.v.G.! ) 9.X Z.~ S., g 5 X a a # % % b % O b O b X + v.0X&XD.Q Q Q Q i.i.3.C 1.d.Y ",
"rXNXN.O.XX0.x ).& & +.mXt V. XV.f.6.d d aX%XA. .G.~.~. .d %.C.S.* ) . h n u # + # O h 5 O + X 5 : # .X+X&XD.D.Q D.i.3.3.C C ` Y ",
"hX1.-X#.[.y.x ).& & +.yXV.s.A.! 6 ) v.yX%XG.%.6.ZXLXKXt s.H &.| * * g X u u + 8 X + } . + 8 3 . # # # . k 8.D.8.D.3.3.i.F.C Y 0.",
"BXN.fXW.{ P.x & & & #XA.( %.t s ; d a.8XZ.sX) v.9XKX~.f.s H | H H p j g z 5 5 ; . X O + # : . + % X # # v./.8.8.8.F.i.i.F.C Y 0.",
",XN.I.|.` *.x & & +.yXOXS.A.s.; d % d Z.sX8X~.t H G.p.t w 6 @  .V.G j 6 5 2.w g 5 X X + # O + 3 ; 8 X # . :X).&XD.i.D.i.C 1.3.0.",
"N.-XW.>.0.*.).& & +.:XV  X X@ d + :Xs. .sXG.OXH @ z t H z : %.G V.H w 6 ; %.* @ : X g 2.8 X X g 3 d : 8 8 2.:X/.Q Q 8.F.F.1.C y.",
"-XfXI.1.0.*.& & +.#X:X9.V.p.9.) B.9XS.9.s.* , z : } z d d G.C.V ( G w @ z * s g + % % # d X X 5 % . @ ; 5 3 v.0XQ 8.D.F.F.N.1.y.",
"Y.XX[.d.P.q.& +.+.#XiXA. .Z.~.S.%.9X( t S.* ) G.S.g aX . XUX~ s 3 * 6 d O g @ ; X b O : % h s , a 5 3 . g 8 5 mX&X8.8.3.C >.x.y.",
"4.O.[.d.*.J.& +.+.mXS.p.f.t H @ z S.( t %.s ~ C.w z %X( pX5XG g + } 6.X O ; g w 2.* p w + 8 G V 3 : O . 6 , d 3 #XP.8.F.x.Y.x.*.",
"t._.XXN.Y x & +.+.:Xs. .3 * 6.a n 6.s ( 6 j &.@ } d %X%.S.5.V ; % m.p.H @ a.~ &.G j s z u 6 | ! * # # ; @ 3 # 6.2.!.8.N.{ 4.x.h.",
"t._.I.>.d.J.& +.+.;X) s z a.+ 6Xb 5 @ p , 6 w } . %.( 9.g w s X . %.t ! , ( C.5.V 6.u h a 8 p p V 3 ; 6 ; O O 8 6 ;XQ -X4.t.N.J.",
"t.O.O.>.Y J.& & #X;Xv.@ 8XA.9.h B.G.~ ! ; a.6.% %.! ! s + + + . ( * ) w ; ! | H 6 + n n 6XO ! G p ; : + % : u 8 s ;XC Y.t.c.$.x ",
"t.XX_.Y.@.J.& & #XiXR.( ~ t ) B.~.pX( } aX X( a.Z.%X~ 6 } 6Xh s.( : # @ 6.s g 5 # : O . ; . @ G j : @ ; h @ g . g ^ x.4.Q.Q.y.& ",
"[.XX_.t.` h.& ).yXT.R.( OXT.t G.T. Xf.% p.T.j @ t t * , O n ; s.; n + ; p V u a ; 6 6 ; g f., , 3 a.* @ 6.@ w # . /.{ 4.4.{ JX& ",
"XXXXO.O.>.@.q.K.K.t  .t  Xp.( 9X~.%Xa.8 ~ 5.s z ! , : X O O 3 , } m.~ C.~ * X . H V j d # ) * . 2.s. .@ z . w X VXC Y.|.4.$.uXCX",
"fX[.I._.|.C y.*.K.aX XC.p z Z.KX~.p. .t p j @ ; %.) + a b ) * u % p.pXC.| , X 9.R.H j X % 5 6 , , w s.2.X b @ . +X>.|./ c.` PXz.",
"nXt.XX_.I.x.@.*.& ~.C.G , m.9XIX9X . .V.w 6 @ G.A.~ 6 h v. Xp X # C.5X&.G 3 u 2.H ! w O a + , ; 3 %.p 2.h a . v.Q Y.b.$XI.kX=X}.",
"hXfXI.O.W.4.$.*.& OXG , b O p.9XS.d 6 p , 3 Z.IXV.G w 3 t T.V : X &.&.&.H 3 h # * * s X a u 5 . 8 9.w 3 h X b +Xx.Q.r r 1XeXoX<.",
"eXnX'.O.#.I.{ $.K.f.; } # 3 9.s.d a . * * * t T.R.G s : R.V.V : . | &.5.V 8 b @XO d z : X g . a X 6 * : 3 , VXF.1Xc.b.[.BX{.2Xv ",
"r.cXI.'._.O.c.{ y.;Xm.O d 3 G.8X# % h Z.A.R.G 5.G w 3 : ! | ! d u @ H ! s u @X@Xb 5 3 : 3 | @ h u . : 6.! 6 k x.Q./ c.nXrX{.u.i ",
"g.eXSX'.O._.#.c.>.x B.% u sX~.A.w % ) T.A.R.w , 6 , : z ; j j 6.X t 5.3 a b % @Xn X 5 u 3 R.* 8 , z 6 j p a./.4./ b.4XgX].{.u.A ",
"q z.cXt.'.O.#.#.|.y.^ b O ZX~.p.g 6X%.C.~ G 6 h O h X 3 # . @ # g pX5X* a O X a @Xn u n 8 G , # j | 5.j @ 7.Y./ r c.wX3XU.{.[ r.",
"R {.{.wX[.'.O.#.I.x.P.VXB.A.%Xs.u 6X .p s ; X O 3 u a % % g , b w pX&.@ % + : % @X% 6 X 5 j 3 a j &.5.j ;X>./ r b.>X3X].`.{.z.<X",
"R r.E eX-XxX'.I.[.|.{ P.:XS.( * n :XA. .: } % 3 , 5 5 O n 5 6 # H 5X&.s O # 8 z # } 6 6 z s X m.* &.H sXC / $Xr t.BX].-.A z.<XM.",
"2 {.q q vXfX'.'.I.O.O.4.@.sX, + % t C.~ w + 5 2.f.S.j # @XO : + H C.5., % . %.| j 3 # @ 9.* f.OXw 5 ;X$./ $Xr / wXz.B A o U.E l.",
"<.r.E e.U.cXxXO._.E.7X#.t.@..Xb f.| G V s + # g V.OX6 % : p @ n 8 j 6 h @X% p.~ V j z  .C.| V &.2.VXN.W.H.r / nXeXA B W o U.e.E ",
"W l.e.l.q g.AXxXO.#.E.7XE.[.C 7.t R.6 ; X b h , &.! O u w R.p % @XX ; 8 b O  X~ V w , ! 5.| 6 * x 4.$XH.r c.wX}.z.L.z.L.2 U.o q ",
"A g.< e.Z N ,.AX'.#.#.#.7XE.O.Y.lX8X6.} n a # 2.V u n z w &.5.p . %.V.5.3 . ~ 5.p * g 6.p w v.x / (.H.r Q.NXu.v 2 g.r.].A U.z.o ",
"u.[ ' I c - $ u.AX'.#.E.#.H.E.#.XX>.x .Xn n X ; 3 b a ; H 5X5.| V p V.~ @ 8 S.| j 6 ; X #Xy.x.#.(.H.W.4XtX=Xi B $ g.E ].r.2 A o ",
"g.`.' R ' > D $ L cXxXE.(.#.r #.#.r / 4.Q k v.V p s u 3 | C.5.G j ; | 5.* d * p V * mXD.Q.H.(.(.$XQ.1.GXn.*XF g.y E L.=XU.$ $ g.",
"E `.S I ' R <.Z K {.hXSX#.E.E.b.b.$XE.$Xr c.>.FXZXG.;Xv.! &.G j * X w V. .B.a.yXFX>./ H.(.(.$Xb.{ @.MXu.0 j.$ A $ A 2 F q A D z.",
"M.`.K e.< }.W - ..g.<.3XwXO.E.E.r / / W.r r r r / Q.4.x.lXFXHXuXuXq.lX>X4X{ { c.H.(.7X7XH.b.>XlXJXCX;.L 0 S ] 2 - $ o z.l <XdXoX",
"l I c I J S Z c oXr.g.rX}.gXSX'._.W.[.t.t.c./ b.W.r r r r W.W.W._.H.(.7XH.r c.b.H.(.r / >Xd.h.PXCX[ j.S M X.*XD e y D A   1 -.;.",
"4 4 L 4 Z e 4 z.}.1 g.L ,.k.rXgXY.[.XXt.4.1X1X4X|.Q.c./ b.b.b.b.r (.7X(.r Q.4X|./ >X` 0.*.J.jX] P   P $ :.X.*X[ > P ;.$ N W B L.",
"Z =.  =.- 2 q {.rXc 1 M.B o.P 2 oXgXnX4.4.1XY.{ >.>.>.{ >X4X|.Q.b.r r |.{ x.1.$.` @.y.q.PX=XK P o.< S [ *XT P z.;.y -.$ v ].`.E ",
"e c   9 = L I W oXR c E Z qX}.B N 2 <.vXwX-X{ { >.x.N.1.1.1.1.$.$.$.$.d.` ` ` Y 0.h.jX2X] S 0 P _ < L [ u.0 - i dXF -.A y N e.<X",
"..o - 7 y A q   k.q   `.c r.[ B W W > B <.3XvXgXNXC 1.1.C $.$.@.y.@.Y Y Y 0.tXGXjX2XF _ X.k.:.k.k.Z ' ' {.j.> 0 n.i u.B 0 9 l.<X",
"R R Z w.o.-.E L v R > L q E 1 A `.e.c - - A R l S oXjXMXkXtXtXkXGXkXkXMXMXrXU ..o.= Z _ bXD y ] ] A Z m -.;.P P -.-.2 $ D 1 q M.",
"- K 1 M T _ l 2 D F y e u.i B g.1 l l l 1 < 4 e.I L S = R ,.<.oXoX}.<.B z.[ > $ y e Z v P S D F F g.2 dX2 L :.X.2 -.y = ..z.<Xl.",
"m S I = e > = 1 v m D i K -.U.q o l l I l $ l l.l.c W o I Z [ - 2 z.W W $ 2 < o K K K = K v y i i M.o =XW S k.P ;.F F $ _ u.M.I ",
"=   4 L ,.B v q D = *XK _ -.].B E 4   U.$ y =.l.l.1 e.l c c U - e c 4 W B $   o i 0 > e 2 F > i D U.  D 2 L ' ] =X- L ,.= -.1 9 ",
"M > f qX] > N 1 $ e F L.=X;.-.y o     -.o > J e.r.4 I   - 9 > ' c J c $ B [ - 4 y _ > ,.U ] = 2X$ 1 e F W U c y y o U qXk.<.o 4 ",
"m _ _ L n.$ 1 o > > A A $ i B 2 i   Z F l o - =.4 1 i i   9 ' 4 4 f 9 N $ N 7 < 0 S e ' - 0 ] n.R 1 y ..q = 1 B D N }.oXoX<.u.l.",
"- m qXq ..i W > 9 Z $ 2 o ].$ o ;.9 4 2 <   K <   o v 2 9 < y 4 Z 0 J   o 4 = < 7 7 0 c = w...0 ,.1 y 0 M.y c - i $ ' ,.K CXu.M.",
"f f Z e.Z   o m 9 4 > - L.L.= N v 9   $ < o > f Z o v = < f P = y S 4 L [ 9 = o y M = > < o.m j.k.  F F E $ ' - ].N ,.,.S }.U M.",
":.T   I =.=.N 0 > =.9 F u.1 e D i 9 $ i w.> e M 0 o - m 7 f y :.0 1 l R L < 7 N 0 M = e J m f :.> f P F q o <.i g.  ,.<.g.:.m M.",
"X.X.R c = =.9 v y N - _ K 1 $ y i 1 B 9 T > v m *XN - = < f P X.7 l l c $ 7 9 < m m 0 _ J < w.j.Z f o.;.L.q q N [ 7 = [ D o.D e.",
"X.o.4   M 7 J < m 0 e n.i l F M i 1 Z 9 7   M = o.Z K k.= f _ w._ 1 c Z R = 7 M > 1 :.e 9 7 X.j.9 > P U W o 1 B k.M U n.j.X.dXI ",
"e '     7 f < f = o.v bX;.i ] - u.1 7 e 9 = T = j.- ;.u.7 f j.m S R c N g.c T X.- e.j.oX9 7 M qXZ 2 ..L.E   [ u.i :.2XX.P bXn.I ",
"  =.= < m     7 = P m bX..=X..,.[ ' :._ J f T 0 j.] ;.L.M w.P M k.I I c R R M = B o j.n.  f w.oXZ N y F W Z `.B 2 P *XT 0 w.J l ",
"c 9 < = qX- =.7 < _ T o.] ;._ }.[ L *Xk.  J f e ..D F 2 e 7 $ M S l =.I W [ 0 = U ,.n.2X0 w.w.}.o N $ 0 e $ o N D ;.dXM :.7 J =.",
"N f $ > ,.k.< M < v T o.}.;.U <.<.U 0 U Z f 4 e ..i = i F M > v r.  9 R ' o F > k.] y n.T w.T qXW N e K [ o 2 B D u.] ..:.0 J l ",
"> < 0 v U _ f M M ] M _ }.U L R R L $ <.Z S c > o.D ] 2 v :.= v U.U 4 Z - o u.] ..o.  0 X.X.T > B N = $ q q B `.o 2 K ..X.o.e l ",
"$ = 0 K L > 7 w.7 n.7 7 U [ ' ' q ' K <.L U J < T :.F <   m < m 2 K =.9 J   F 2Xn.j.9 = X.X.m :...o e 9 9 - 4 I 1 i v v :.o.i I ",
"S T T 2 S v :.7 = j.M w.K U K ' e.q U 2 - > M e 2 P $ > < 7 9 :.$ - 4 < f < v oXn.P J m o.y 0 X.e 2 F 1 4 [ l =.4 D e i ..o.B W "
};