/* XPM */
static char *_016887fb42b4c7d8fef44425b150836GeSgU7TF70ehr18J[] = {
/* columns rows colors chars-per-pixel */
"64 64 233 2 ",
"   c #0D0501",
".  c #0D0C0C",
"X  c #0B0903",
"o  c #130B03",
"O  c #130C0A",
"+  c #1A0E06",
"@  c #14120D",
"#  c #1C1408",
"$  c #0C0E13",
"%  c #080E15",
"&  c #0C1115",
"*  c #0D111A",
"=  c #131314",
"-  c #191515",
";  c #1B1B15",
":  c #141419",
">  c #19171B",
",  c #1B1B1B",
"<  c #161A18",
"1  c #100E11",
"2  c #251804",
"3  c #211E1B",
"4  c #261D15",
"5  c #1E211A",
"6  c #2C220D",
"7  c #24231C",
"8  c #29261C",
"9  c #392B1A",
"0  c #3E321E",
"q  c #3A2A0C",
"w  c #1D1C20",
"e  c #2B2B24",
"r  c #282522",
"t  c #372D26",
"y  c #3D352D",
"u  c #363326",
"i  c #3C3431",
"p  c #3B3831",
"a  c #382F30",
"s  c #47361B",
"d  c #4B3D2B",
"f  c #433727",
"g  c #513F23",
"h  c #4C3D31",
"j  c #443B31",
"k  c #53422D",
"l  c #5A4C34",
"z  c #554634",
"x  c #5C5131",
"c  c #695A3D",
"v  c #645639",
"b  c #745D3A",
"n  c #685A2D",
"m  c #7C643E",
"M  c #78653A",
"N  c #555B54",
"B  c #55544A",
"V  c #6A5C43",
"C  c #645843",
"Z  c #58665D",
"A  c #6B6345",
"S  c #756342",
"D  c #7C6441",
"F  c #77694B",
"G  c #7E744C",
"H  c #7A6D54",
"J  c #786554",
"K  c #7C7655",
"L  c #686C5D",
"P  c #5D6964",
"I  c #64756B",
"U  c #63796D",
"Y  c #777968",
"T  c #687978",
"R  c #737B71",
"E  c #626D65",
"W  c #826B3C",
"Q  c #85673F",
"!  c #8A723C",
"~  c #93743D",
"^  c #947538",
"/  c #926E3A",
"(  c #846C43",
")  c #8A6E44",
"_  c #886B49",
"`  c #857145",
"'  c #8B7345",
"]  c #85754C",
"[  c #8B744B",
"{  c #8D7A4D",
"}  c #897A49",
"|  c #927344",
" . c #9C7D45",
".. c #93764B",
"X. c #947B4C",
"o. c #9C7D4C",
"O. c #977745",
"+. c #837352",
"@. c #847A55",
"#. c #8C7C53",
"$. c #8C7E5B",
"%. c #877858",
"&. c #937D53",
"*. c #9C7E53",
"=. c #927853",
"-. c #A27D4B",
";. c #A07C47",
":. c #867E65",
">. c #7A8778",
",. c #7F8061",
"<. c #9D824C",
"1. c #998348",
"2. c #8D845D",
"3. c #898158",
"4. c #958155",
"5. c #9B8354",
"6. c #94825A",
"7. c #9B835A",
"8. c #96895C",
"9. c #9C8A5C",
"0. c #9B8953",
"q. c #8F824E",
"w. c #A3834C",
"e. c #A4854B",
"r. c #A38453",
"t. c #A88651",
"y. c #A48A53",
"u. c #AA8A54",
"i. c #A28B5C",
"p. c #AA8D5A",
"a. c #A78559",
"s. c #B28D59",
"d. c #A7945D",
"f. c #B2935B",
"g. c #B2985F",
"h. c #8C8463",
"j. c #8A8767",
"k. c #958561",
"l. c #9A8663",
"z. c #9E8C6A",
"x. c #998967",
"c. c #868B7A",
"v. c #89947D",
"b. c #95967A",
"n. c #999677",
"m. c #9B8A6C",
"M. c #A28D63",
"N. c #A68E67",
"B. c #AA956A",
"V. c #A79364",
"C. c #B29566",
"Z. c #A99875",
"A. c #B29E76",
"S. c #9BA17D",
"D. c #B5A075",
"F. c #6A7F80",
"G. c #7B8C84",
"H. c #768A87",
"J. c #7E958A",
"K. c #798E8B",
"L. c #838F86",
"P. c #839383",
"I. c #899789",
"U. c #959B87",
"Y. c #8C9C93",
"T. c #959F97",
"R. c #9BA185",
"E. c #9CAB9A",
"W. c #95A494",
"Q. c #9EB19E",
"!. c #A5A488",
"~. c #B9A98B",
"^. c #A8AA96",
"/. c #B4AD91",
"(. c #A9B49C",
"). c #B1B99C",
"_. c #9FABA4",
"`. c #9EB3A2",
"'. c #A5ACA2",
"]. c #A3B4A2",
"[. c #AAB8A7",
"{. c #B7BCA7",
"}. c #B3BEBB",
"|. c #AEB6AD",
" X c #C6B599",
".X c #C4BCA8",
"XX c #C7BEB2",
"oX c #B7C1A9",
"OX c #B6C4B8",
"+X c #CAC3AB",
"@X c #D5C6AB",
"#X c #CBC2B6",
"$X c #CDC4BB",
"%X c #C4C7B9",
"&X c #D2C9B8",
"*X c #D9D3BA",
"=X c #C9D2B7",
"-X c #E2D0B8",
";X c #BDC7C2",
":X c #C8CAC6",
">X c #D9CFC2",
",X c #D8D5C7",
"<X c #D6DAD3",
"1X c #E7D9C5",
"2X c #E3DDD4",
"3X c #E7E1CD",
"4X c #E4E4D8",
"5X c #F5EBD6",
"6X c #FCF2DC",
"7X c #F1E7CC",
"8X c #D5E0E4",
"9X c #E8EAE4",
"0X c #FDFBE3",
"qX c #FFFDED",
"wX c #F7F2E6",
"eX c #F4FAF4",
"rX c #FDFDF5",
"tX c #F6FEFC",
"yX c #FBFFFF",
"uX c #FAFEFE",
"iX c #FEFFFD",
"pX c #FFFFFD",
"aX c #FFFEFD",
"sX c #FFFDFF",
"dX c #FCFFFF",
"fX c #FFFEFF",
"gX c #FEFFFF",
"hX c white",
"jX c #FEFEFF",
"kX c #FDFDFD",
"lX c #FEFEFE",
"zX c #F8F7F6",
"xX c #EEF4EE",
/* pixels */
"hXhXhXhXhXhXhXhXhXhXhXhXhXhXhXhXaXaXkXkXhXhXhXuXrXpXpXaXkXkXsXkXkXkXkXkXkXkXsXkXhXuXuXuXpXpXpXpXhXhXhXhXhXhXhXhXhXhXhXhXhXhXhXhX",
"hXhXhXhXhXhXhXhXhXhXhXhXhXhXhXhXpXpXhXkXhXhXuXrXrXpXzXpXkXkXkXkXhXaXzXkXsXsXkXkXhXpXpXrXpXrXpXpXhXhXhXhXhXhXhXhXhXhXhXhXhXhXhXhX",
"hXhXhXhXhXhXhXhXhXhXhXhXhXhXhXpXpXpXhXhXhXhXhXuXpXrXhXkXhXaXzXpXaXpXkXkXkXkXkXkXhXpXrXpXpXpXhXhXhXhXhXhXhXhXhXhXhXhXhXhXhXhXhXhX",
"hXhXhXhXhXhXhXhXhXhXhXhXhXhXhXpXpXpXhXhXuXhXhXpXpXpXkXhXhXhXhXeXaXrXhXaXkXkXkXhXhXpXhXpXpXuXhXhXhXhXhXhXhXhXhXhXhXhXhXhXhXhXhXhX",
"hXhXhXhXhXhXhXhXhXhXhXhXhXhXhXpXpXpXhXhXkXhXpXpXpXpXhXkXsXkXzXpXrXeXaXhXkXkXkXhXhXhXhXpXhXhXhXhXhXhXhXhXhXhXhXhXhXhXhXhXhXhXhXhX",
"hXhXhXhXhXhXhXhXhXhXhXhXhXhXhXpXpXuXhXhXkXhXpXpXrXpXkXkXhXkXpXeXwXpXeXpXkXhXkXhXhXhXpXpXpXhXhXhXhXhXhXhXhXhXhXhXhXhXhXhXhXhXhXhX",
"hXhXhXhXhXhXhXhXhXhXhXhXhXhXhXpXhXpXhXhXhXkXkXkXaXkXtXhXuXpXrX$X4XrXpXeXhXhXsXkXkXkXpXpXhXhXhXhXhXhXhXhXhXhXhXhXhXhXhXhXhXhXhXhX",
"hXhXhXhXhXhXhXhXhXhXhXhXhXhXhXpXhXhXuXhXhXkXkXaXpXhXkXtXtXpX'.wX<X%XrXuXzXhXhXkXhXkXpXhXkXhXhXkXhXhXhXhXhXhXhXhXhXhXhXhXhXhXhXhX",
"hXhXhXhXhXhXhXhXhXhXhXhXhXhXhXpXaXpXuXhXhXhXkXaXkXhXuXtXuXI.c.qXwXY <XrXuXuXtXpXhXhXrXhXkXkXhXtXhXhXhXhXhXhXhXhXhXhXhXhXhXhXhXhX",
"hXhXhXhXhXhXhXhXhXhXhXhXhXhXhXhXhXhXuXuXuXhXaXaXhXuXtXtXW.N #X0X9XoXv.4XrXtXuXpXpXhXkXkXhXhXhXhXhXhXhXhXhXhXhXhXhXhXhXhXhXhXhXhX",
"hXhXhXhXhXhXhXhXhXhXhXhXhXhXhXhXaXzXuXhXuXhXpXaXkXtXtX_.P c.=X0XqX{.|.c.9XeXuXuXaXaXkXrXhXhXuXhXhXhXhXhXhXhXhXhXhXhXhXhXhXhXhXhX",
"hXhXhXhXhXhXhXhXhXhXhXhXhXhXhXhXaXaXhXhXuXhXhXpXzXhX}.Z >.c.7X6X0XoX{.^.G.eXrXuXaXaXsXkXhXhXtXuXhXhXhXhXhXhXhXhXhXhXhXhXhXhXhXhX",
"hXhXhXhXhXhXhXhXhXhXhXhXhXhXhXhXkXkXkXtXuXuXzXhXhX}.N I >.U.5X-X0XOX(.oXJ.P.tXtXzXaXaXaXkXkXuXuXhXhXhXhXhXhXhXhXhXhXhXhXhXhXhXhX",
"hXhXhXhXhXhXhXhXhXhXhXhXhXhXhXhXkXkXkXtXuXrXhXhX:XP H.K.>.(.~.F @X=X).(.Q.>._.eXaXaXrXpXkXzXhXuXhXhXhXhXhXhXhXhXhXhXhXhXhXhXhXhX",
"hXhXhXhXhXhXhXhXhXhXhXhXhXhXhXhXkXkXhXuXtXuXuX:XB G.G.U P.v.H @.,.(.oX).[.`.>.`.zXhXaXpXhXzXuXuXuXhXhXhXhXhXhXhXhXhXhXhXhXhXhXhX",
"pXpXhXhXhXhXhXhXhXhXhXhXhXhXhXhXkXhXuXhXuXuX<XN G.G.P >.R.K @.4.,.3.(.oXI.[.[.>.{.zXpXeXhXkXhXuXhXhXhXhXhXhXhXhXhXhXhXhXhXhXhXhX",
"pXpXpXhXhXhXhXhXkXhXkXkXhXhXhXkXhXkXaXeXrX<XI L.J.U v.R.2.$.7.X.7.` ,.).Q.J.`.oXR ;XpXeXhXhXzXhXhXpXpXpXpXpXpXpXpXpXhXhXhXhXhXhX",
"pXrXhXuXhXhXkXhXhXhXkXhXhXhXhXhXaXaXzXuX4XE H.T >.I.v.j.&.X.7.o.<.1.@.j.).`.W.Q.OX>.,XhXpXhXhXzXhXpXpXpXpXpXpXpXpXpXhXhXhXhXhXhX",
"pXuXhXhXhXhXhXkXhXhXhXpXhXpXhXpXaXzXhX9XP K.I >.v.n.2.#.l.&.=.=.&.7.q.G j.oX].E.P.`.R 4XpXzXzXhXhXhXhXhXhXhXhXhXhXhXhXhXhXhXhXhX",
"hXhXhXhXhXhXhXkXhXpXpXpXhXhXpXpXaXkXzXT H.>.J.v.n.2.] { 4.8.[ =.6.#.8.q.3.j.).[.(.I.E.Y 9XpXuXhXhXhXhXhXhXhXhXhXhXhXhXhXhXhXhXhX",
"hXuXhXhXhXhXhXhXpXpXrXpXrXpXpXhXtXtX8XT H.J.J.S.2.1.0.i.7.$.( c ` 4.3.{ &.] b.).[.(.E.P.Y.pXuXuXhXhXhXhXhXhXhXhXhXhXhXhXhXhXhXhX",
"hXhXhXhXhXhXpXhXpXhXhXhXhXpXuXhXtXtXK.H.K.K.S.3.0.y.r.5.7.D b b v ] X.q.{ #.@.x.).[.oXE._.tXhXhXhXhXhXhXhXhXhXhXhXhXhXhXhXhXhXhX",
"hXhXhXhXhXpXpXpXhXhXhXhXhXhXhXhXtX;X>.J.E ,.j.8.9.0.5.i.*.b b m M n #.7.*.{ ] 3.n.).E.OXY.;XuXhXhXhXhXhXhXhXhXhXhXhXhXhXhXhXpXpX",
"kXhXhXpXpXpXpXpXhXhXuXhXhXuXhXtXxXK.>.>.,.j.8.0.0.4.M.7.( ) ( [ G m [ 7.7.4.} { 3.b.b.W.|.W.xXhXhXhXhXhXhXhXhXhXhXhXhXhXhXhXpXpX",
"hXhXhXhXhXpXpXhXhXtXhXhXhXhXkXtX}.I >.b.$.7.7.&.4.l.9.( M m ( m M M b [ l.*.$.=.] 3.R.R.E.`.;XuXhXhXhXaXkXtXhXhXhXhXhXhXhXhXpXpX",
"hXhXhXhXrXpXpXhXuXhXkXhXkXtXhX<XP >.b.2.7.5.*.a.7.[ ( W ) [ [ } ! ' ( m ( [ 7.*.{ #.@.R.(.I.W.zXzXhXzXhXhXkXhXhXhXhXhXhXhXhXpXpX",
"hXhXhXpXpXuXpXhXkXkXtXkXhXhXpXR Y R.2.4.i.5.7...Q ( ( ' } ! ` [ ` ` ) Q b D +.*.6.] ] 2.~.{.L.].hXzXpXpXhXhXhXkXhXhXhXhXhXhXpXpX",
"hXhXhXpXrXpXhXhXkXkXkXkXhXhX^.Y !.3.q.5.*.r.4.) _ ) ....| { { =.o.` ' .._ ( ( $.#.&.{ #.h.!.XXY <XhXpXaXhXhXhXhXhXhXhXhXhXhXpXpX",
"hXhXhXpXpXpXhXhXkXkXhXaXrX2Xc.n.2.3.4.r.o.4.&.M b Q Q Q ' | ..) [ ) | ( ) ( Q ( 7.&.4.{ ] 2.^.^.U.pXrXpXpXpXuXhXhXhXhXhXhXhXpXpX",
"kXhXhXhXpXpXhXhXhXkXhXpXrX^.b.2.q.4.i.5.5.0.' W / ) ..X.X.X.O...| ..| ! ) ) W m 7.9.4.=.6.@.3./.U.<XrXpXrXpXpXhXhXhXhXhXhXhXpXpX",
"kXkXhXhXpXpXhXhXkXkXaXrX*Xj.K 8.7.9.4.4.<...o.w.a.r.*.7.r.r.-.t.r.a.7.9.5.<.r.5.X.o.7.4.] 3.{ @.^.^.eXpXpXpXhXhXhXhXhXhXhXhXpXpX",
"hXkXhXhXpXpXhXpXhXpXrX6Xn.@.h.2.5.5.X.W ` o.O.-.o.<.4.4.*.r.a.-.o.5.X.o.<.4.5.o.o.[ } 4.8.q.{ #.:.!.,XrXzXpXhXhXhXhXhXhXhXhXpXpX",
"hXhXhXhXhXhXhXrXrXrXqX/.+.&.9.5.i.q.M ! | O.*.-.e.1.w.0.i.a.a.o.o.r.*.*.5.r.5.<.*.*.&.{ { 0.q.} } 3./.wXrXhXzXhXhXhXpXuXhXhXuXhX",
"hXhXhXhXhXhXhXpXrX0X.XK { 4.X.5.p.q.! M W Q _ O.^ ^ ~ ! X.) _ =.( ) [ ..=.&.o.&.=.+.[ _ ! 1.0.} { q.%.@XrXrXhXeXpXpXpXhXhXhXhXpX",
"hXuXhXhXhXhXhXrXqXXXH $.6.i.i.X.5.o.' ~ 1.X.*.a.e.t.y.9.M.z.l.+.V V C C v V F K l.*.%.[ ` 1.7.4.} } k.h.>XrXpXhXhXhXhXhXhXhXhXhX",
"hXhXhXhXhXhXhXrX2XK %.6.l.4.5.<.o.<.O.1.r.r.*.-.y.y.M.z.h.v 0 2 + @ O O X o 2 4 f J :.N.q.q.4.7.4.&.] h.h.2XrXzXhXhXhXhXpXpXhXhX",
"hXpXpXpXhXhXhXpXpX*Xj.m.x.X.0.<.r.r.o.w.e.r.a.a.p.a.8.V 6   o o $ $ = * & $ . @ o o t J l.4.&.=.7.4.&.3.j.:.9XkXkXkXkXkXpXpXhXkX",
"pXpXrXuXhXhXkXaXrXrX5Xb.+.{ ! ~ / ~ / ^ | ~ O.O.~ { g   X @ $ $ * * * * * & & $ X @   + b &.[ =._ #.8.@.K .XwXhXkXkXkXhXpXhXhXkX",
"rXpXpXpXhXhXkXhXrXrXrX0X@XM. . . .w. .<.w.-.-.-.o.' s   O & & & . $ & $ & & % % & X $ + v ] #.[ =.6.$.x.*XqXpXhXkXhXhXkXhXkXkXkX",
"hXpXpXpXhXhXkXkXhXrXrXrX0XZ.X. .;.w. . .w.-.-.r.O.` s X = & * * 1 1 & $ % & & & % $ ; + F 8.6.N.l.@X@X7XqXqXpXzXkXkXkXhXhXhXhXhX",
"hXhXpXuXhXhXkXkXpXaXrXrXqX~.X. . .;.<.w.w.w.e.-.w.i.k X - & * & = @ - = = = & & & = $ # K 9.9.M.l.1X0XrXaXhXhXuXhXhXhXhXpXhXhXhX",
"hXhXpXuXhXhXkXkXhXhXkXaXrX XX. .~ ~  .1.1.e.t.t.y.p.k X : : : < - @ - - : = : & & = . 6 %.4.5.7.N.7XrXrXkXhXhXhXpXpXrXpXhXhXhXhX",
"hXhXhXpXkXkXkXkXhXhXhXuXaX@X..w.w.w.w.y.e.t.t.t.e.M.l o : : = = > : > - : : : : * 1 . 8 x.i.t.i.Z.wXrXsXsXkXhXhXuXuXpXpXhXhXhXhX",
"kXhXpXuXkXkXsXkXhXhXuXuXaX1X=.r.t.t.y.w.e.e.t.e.e.M.l o - - = = : > > > > : : > - = O 9 N.p.s.C.~.qXkXsXsXkXuXuXpXrXrXpXhXhXhXuX",
"kXhXpXuXhXhXkXkXhXhXtXuXkX3X..t.t.t.t.r.t.u.u.u.w.V.l + < < @ @ : w w w > > > : - - O f N.a.s.a. XrXaXkXhXhXuXhXhXpXpXpXhXhXhXhX",
"kXhXpXuXhXhXkXkXrXpXuXuXkX5X..;.-.-.w.r.e.e.e.e.<.i.l @ ; < @ ; < > , w , , , , > , = z B.a.u.a.@XrXrXpXhXhXuXuXhXhXpXhXpXhXhXhX",
"sXkXpXrXaXaXkXkXpXpXkXtXkXwX*.O.-.e.w.r.r.e.w.o. .9.C @ , 5 ; ; 5 5 5 5 7 7 3 ; ; ; @ C Z.d.g.p.1XrXrXrXpXpXhXhXkXhXhXkXkXkXkXhX",
"kXkXpXuXhXaXaXaXrXhXuXtXkXrXM.O.;.;.-.-.w.e.e.w.o.M.v # w r 5 7 7 7 7 7 7 7 3 3 , ; # A A.d.g.V.2XpXrXrXrXpXhXhXkXkXkXkXhXhXkXhX",
"kXhXkXkXkXkXhXpXrXuXhXhXaXqXA.[ r.;.;.w.t.e.e.e.y.V.v 2 8 7 r r e 8 8 7 5 7 r 3 ; 4 # S d.y.u.N.6XrXkXpXaXhXhXhXhXhXhXhXkXhXkXhX",
"hXhXkXkXkXhXpXrXrXuXkXhXrXqX XM.p.p.s.s.s.f.f.d.V.A.m 2 9 8 t a u u t e e e r r 8 8 6 +.V.a.r.N.qXkXhXhXkXhXhXkXhXhXhXhXhXhXhXhX",
"pXhXkXkXhXkXpXrXuXuXhXhXrXqX X#...w.s.f.f.g.g.g.V.D.S 6 0 e a y u p y p p p a a t 4 9 z.B.C.C.~.rXhXhXhXkXhXkXhXhXhXhXhXhXhXhXhX",
"uXhXkXkXhXhXpXpXrXuXhXtXaXrX&X[ 5.5.a.r.t.y.p.p.d.B.D q k f p h y f y j p p j y j 4 0 Z.D.D.C. XrXkXkXhXhXtXhXhXhXhXhXhXhXhXhXhX",
"pXpXkXkXkXkXpXrXtXkXkXsXrXrX-X+.&.X.o.O.| ~ | | X.9.b s s g h h k h j j y u u t a 9 f *.l.*.=.-XrXaXzXhXhXhXhXhXhXhXhXhXhXhXhXhX",
"uXpXhXhXkXkXpXpXhXtXkXkXkXqX2X+.{ ....o.| | ) ) ..&.m s g g h h z k h d k f 0 0 f 9 h m.=.X.&.1XrXkXhXhXhXhXhXhXhXhXhXhXhXhXhXhX",
"rXpXhXhXkXkXhXhXhXkXkXsXsXaX6X%.[ ' ' ` Q Q Q ( [ [ D c c V c V c c V c x x l l z s v N.9.N.M.1XrXhXhXhXhXhXhXhXhXhXhXhXhXhXhXhX",
"pXpXhXhXhXkXhXhXhXhXkXsXkXsXwXC c S F S b M D V S S J H J H H %.H J F F A A A A V V V +.G +._ 6XrXhXhXhXhXhXhXhXhXhXhXhXhXhXhXhX",
"pXpXhXhXhXhXhXhXhXtXkXtXkXkXrXL B &X2X>X1X>X*X>X&X$X$XXXXX$X'.:.$X#X#XXX.X.X.X.XXXXX#X.X.XV B qXpXhXhXhXhXhXhXhXhXhXhXhXhXhXhXhX",
"pXpXhXhXhXhXhXhXhXhXhXkXkXzXkXqXwXpXrXpXpXpXpXrXhXrXpXaXkXaXsXxXpXpXpXrXrXrXrXhXkXzXpXrXqX3X2XhXkXhXhXhXhXhXhXhXhXhXhXhXhXhXhXhX",
"pXpXhXhXhXhXhXhXhXkXhXkXkXaXkXaXrXrXaXaXeXrXpXpXhXrXrXaXrXzXrXpXrXrXzXrXrXrXrXpXkXkXpXrXrXrXhXzXhXhXhXhXhXhXhXhXhXhXhXhXhXhXhXhX",
"pXpXhXhXhXhXhXhXhXzXkXhXkXsXkXzXaXzXpXaXpXpXpXrXpXpXaXaXaXaXpXaXpXhXhXhXpXrXpXhXkXhXzXrXpXrXhXhXhXhXhXhXhXhXhXhXhXhXhXhXhXhXhXhX",
"kXkXhXhXhXhXhXhXpXpXaXhXsXkXkXkXkXkXkXkXhXhXhXhXrXhXaXaXkXkXkXkXhXhXhXuXpXpXpXhXsXsXkXkXpXhXkXkXhXhXhXhXhXhXhXhXhXhXhXhXhXhXhXhX",
"hXkXhXhXuXhXhXhXrXpXpXzXaXkXkXkXsXkXkXkXhXzXhXhXkXhXpXaXkXkXkXkXtXuXhXhXhXpXhXhXsXsXkXkXzXkXkXkXhXhXhXhXhXhXhXhXhXhXhXhXhXhXhXhX",
"kXkXhXhXhXhXhXhXhXzXpXpXaXtXkXhXhXkXkXkXhXhXhXeXpXuXzXhXhXhXhXhXhXhXhXhXpXaXaXkXkXkXaXrXrXpXsXkXhXhXhXhXhXhXhXhXhXhXhXhXhXhXhXhX",
"hXhXpXpXhXhXhXhXpXpXrXpXkXhXkXtXhXhXhXtXhXhXrXuXuXhXhXhXtXhXhXhXuXuXhXhXpXpXkXkXkXkXhXrXeXpXkXtXhXhXhXhXhXhXhXhXhXhXhXhXhXhXhXhX"
};
