/* XPM */
static char *_51fe4226ec64303f41b710892b55b9fuH2QCMivxFaXl6s4[] = {
/* columns rows colors chars-per-pixel */
"64 64 224 2 ",
"   c None",
".  c #242018",
"X  c #29241B",
"o  c #2E2A21",
"O  c #353026",
"+  c #38342A",
"@  c #3E382D",
"#  c #40392E",
"$  c #433C30",
"%  c #433D31",
"&  c #463F33",
"*  c #4A4335",
"=  c #4F463A",
"-  c #534B3E",
";  c #554E3F",
":  c #524C40",
">  c #574F44",
",  c #5C5345",
"<  c #5D5446",
"1  c #5E594D",
"2  c #60564A",
"3  c #645A4D",
"4  c #685D4D",
"5  c #615C50",
"6  c #665E52",
"7  c #665F52",
"8  c #685F51",
"9  c #6D6250",
"0  c #696254",
"q  c #6B6355",
"w  c #6C6254",
"e  c #6D6455",
"r  c #6B6558",
"t  c #6F6558",
"y  c #6D695F",
"u  c #706454",
"i  c #736857",
"p  c #72685A",
"a  c #766A5B",
"s  c #726A5C",
"d  c #726B5D",
"f  c #716B5F",
"g  c #746B5C",
"h  c #796D5D",
"j  c #7C705F",
"k  c #766F62",
"l  c #796F62",
"z  c #7E7262",
"x  c #7E7363",
"c  c #7C7264",
"v  c #7C7567",
"b  c #75766C",
"n  c #7F7568",
"m  c #7E7668",
"M  c #807463",
"N  c #837763",
"B  c #817565",
"V  c #827666",
"C  c #847867",
"Z  c #897A66",
"A  c #857968",
"S  c #867A69",
"D  c #837A6D",
"F  c #877C6C",
"G  c #867D6F",
"H  c #877D6F",
"J  c #887C6B",
"K  c #8A7E6B",
"L  c #8B7F6E",
"P  c #877F70",
"I  c #877F72",
"U  c #8E816F",
"Y  c #898071",
"T  c #898272",
"R  c #8B8273",
"E  c #8F8271",
"W  c #898274",
"Q  c #8B8274",
"!  c #8D8475",
"~  c #8F8676",
"^  c #8F8776",
"/  c #8C887B",
"(  c #8E887B",
")  c #918371",
"_  c #928573",
"`  c #948774",
"'  c #948977",
"]  c #968A77",
"[  c #988B76",
"{  c #9C8F77",
"}  c #91897A",
"|  c #978B79",
" . c #958C79",
".. c #938B7C",
"X. c #938D7F",
"o. c #968D7E",
"O. c #968E7E",
"+. c #988C7A",
"@. c #9A8D7B",
"#. c #9C8E7B",
"$. c #998F7F",
"%. c #9A8F7F",
"&. c #9A917D",
"*. c #9D907D",
"=. c #9D927E",
"-. c #A0917E",
";. c #999181",
":. c #9E9280",
">. c #9D9482",
",. c #989587",
"<. c #9D9584",
"1. c #9E9585",
"2. c #9C9889",
"3. c #A09380",
"4. c #A19482",
"5. c #A39682",
"6. c #A69480",
"7. c #A09685",
"8. c #A49784",
"9. c #A79784",
"0. c #A79981",
"q. c #A59A87",
"w. c #A69A86",
"e. c #A99B84",
"r. c #A99C87",
"t. c #AD9C87",
"y. c #A19888",
"u. c #A29988",
"i. c #A29A8B",
"p. c #A39B8B",
"a. c #A79C89",
"s. c #A79D8B",
"d. c #A29D8E",
"f. c #AA9D89",
"g. c #AB9F8A",
"h. c #AB9E8B",
"j. c #A99E8C",
"k. c #B09E8B",
"l. c #ADA18C",
"z. c #AFA38C",
"x. c #ADA28F",
"c. c #B0A189",
"v. c #B3A18F",
"b. c #B1A58E",
"n. c #B4A48C",
"m. c #B4A78F",
"M. c #A7A597",
"N. c #AAA090",
"B. c #AFA490",
"V. c #A9A89B",
"C. c #ADAB9E",
"Z. c #B2A490",
"A. c #B2A792",
"S. c #B6A593",
"D. c #B7A792",
"F. c #B0A594",
"G. c #B0A696",
"H. c #B7AA93",
"J. c #B4A994",
"K. c #B6A895",
"L. c #B6AB96",
"P. c #B8A990",
"I. c #B9AB93",
"U. c #BBAB92",
"Y. c #BBAD95",
"T. c #B8AC97",
"R. c #BDAF96",
"E. c #B1A999",
"W. c #B3AD9D",
"Q. c #B9AD9A",
"!. c #BBAE9A",
"~. c #BEAF99",
"^. c #BDB19A",
"/. c #BBB19D",
"(. c #B9B09F",
"). c #BEB29E",
"_. c #BDB4A3",
"`. c #C1B097",
"'. c #C0B29A",
"]. c #C3B49B",
"[. c #C2B29D",
"{. c #C0B49D",
"}. c #C5B59C",
"|. c #C5B79E",
" X c #C7B99F",
".X c #C2B5A0",
"XX c #C4B7A1",
"oX c #C0B7A4",
"OX c #C5B8A3",
"+X c #C0B8A7",
"@X c #C2B8A6",
"#X c #C3BAA7",
"$X c #C6BBA6",
"%X c #C8BBA3",
"&X c #CABCA3",
"*X c #CABDA7",
"=X c #CCBEA5",
"-X c #C6BDAC",
";X c #C7BEAD",
":X c #CCBEA9",
">X c #C8BFAF",
",X c #CFC0A4",
"<X c #CEC1A8",
"1X c #CEC1AB",
"2X c #CEC3AF",
"3X c #D1C3A9",
"4X c #D0C3AD",
"5X c #D2C5AE",
"6X c #D5C8AD",
"7X c #D7CBAF",
"8X c #CBC1B1",
"9X c #CBC2B2",
"0X c #D3C6B0",
"qX c #D3C9B3",
"wX c #D4C8B2",
"eX c #D4CBB7",
"rX c #D7CCB6",
"tX c #DACEB1",
"yX c #DCD0B8",
"uX c #DDD2BD",
"iX c #E0D4BC",
"pX c #E4D9C1",
"aX c #EADFC8",
"sX c #F0E7D1",
/* pixels */
"                                                                              G.D.$X                                            ",
"                                                                        u.1.f.9.-.f.                                            ",
"                                                                8X-XQ.j.t.9.8.-.8.9.                                            ",
"                                                    @XoX-XeX2X-X-X_.p.4.-.9.t.k.t.D.          0 0 6 1 0 e < # &                 ",
"                                            u.p.W.E.N.E._.-X@X(.L.8.4.8.h.v.v.v.~.L.e 6 e 0 u p p i h j i , - = % : <           ",
"                                          ..d.d.N.} ( ;.q.V.7.>.4.-.-.9.k.v.S.^.*X4.0 e w 0 4 2 4 u a i 3 ; ; ; ; 2 = O X       ",
"                                        Q ;.} o.o.Y ! N.Q.j.H E +.#.9.k.S.S.v.k.R.z.B u w w u p p p 3 3 , = * = = = * % * @ .   ",
"                                  I n ! Y Q Y ! ! D q.8X8X| x E _ -.k.S.S.t.t.R.*XQ.J C M B M M j j a h 3 , , , 2 ; % @ = # o X ",
"                              1.I D D D H H I I H D Q.uX2XU z C _ -.k.S.L.[.:X0X0X.Xp.8.0.:.=.' ) U U _ _ ' =.| ' M * O O O O X ",
"                          $.( } I B l p l l I ! n p ).rX@X_ x ) ' -.9.9.k.k.k.~.OXwX*Xl.r.b.F.b.r.4.&.=.5.s.z.J.L.t.j 4 9 i 9 = ",
"                        1.X.H n k l k w e u k D k t z.@X).4.U ` ) _ U Z ) 8.[.*X4X4X:X[.h.q.h.z.z.l.w.l.l.z.L.^.[.).m.*.` ` ) j ",
"                      s.N.>.n p f f n ! p 6 3 8 w 3 H Q.L.h.#.[ #.) Z @.S.OX5XrXpXuX0X1XOX).r.q.r.r.x.z.z.J.H.Y.Y.m.m.l.-.{ { ` ",
"                    o.G.N.>.I l n n Q ;.p 2 , 2 3 3 c q.w.h.q.q.b.S.F.].XX:XrXaXsXaXuX0X0XrX$X=.[ *.w.r.l.z.z.l.e.{ [ { { { { [ ",
"                    h.N.d.u.u.7.Q l ! ! t , = > > w , 0 M @.8.0.h.b.L.Q.$XrXpXaXsXsXpXuX9XQ.:XQ.K U _ ` =.q.l.l.<.U N N Z Z Z N ",
"                @X_.(.N.7.u.N.-XoX:.D P c 6 : > > t 8 * 3 z ' 4.q.h.S.).*XwXiXaXsXaXaXyXwX[.).@X&.F F S U { 2.w.=.U h i i i u 9 ",
"              2._.-X@XN.' z S B.2X2XN._ B 2 , , < z C = # h #.h.b.L.T.T.*X5XiXpXpXpXpXyXyX*XL.).l.' | @.| &.<.&.^ x j 9 3 4 4 9 ",
"            G.G._._._.W.o.u 4 U Q.2X).K p 4 8 8 , x J p - l h.K.~.^.~.~.:XwXiXpXyXrXwX,X2XQ.J.).<X).q.' ` &.&.^ z 0 9 w , # * < ",
"          oX@X-X9X9X8X_.u.B 4 h -.F.Q._ w 0 l h 3 w l ) S i q.L.).XX%X.X:X5XyX5X,X5X*X=X:X^.Q.:XrXyX$Xr.U U ' ! l 3 3 0 - #     ",
"      G._.-X@X_._.L.j.1.E F z j U =.4.E 2 < B M u 3 a ' @.J f.t.Z.OX1XXX1X5X*XH.K. X7X4X*X).[.wXyXyXyX2Xl.F C ^ H 0 , ; * +     ",
"  u.u.N.q.h.7.q.j.s.B.l.@.U x x N U M u = ; h h u 3 a ` ) ` l.' 7.[.wXwXOX7.p F 9.~.5XwXOXXX).2XyXiXyXwX*X=.U ! E D d 3 >       ",
"I ! K U ` | =.s.h.x.B.h.*.M u M S N i w 3 , S K h 8 8 B E K ).h.` l.4XQ.c - = h t.m. X%X%XOX~.:XpXiXuXrX5X[.4.@.| ^ Q k :       ",
"  ..S S U | =.4.4.h.;.$.C u j _ E S B C S i B ' B i w 3 B S S..X) ' ! > O # * M 4.4.l.I.*XOXQ.*XyXrXrXyX7XOXJ.s.1.| ^ D 5       ",
"        f I Y s.=.E ` M g C ' _ K K U #.' M p i M C w - 3 p =.[.9.M * O + # > ` Z ` h.^.1XR.Y.%X5XrXrXyX7X*XOXJ.j.s.o.E / Y     ",
"                F.$.L K ` ` E U K ) @.t.8.N B K j p p - ; e L n.l.f @ % # , C j M -.I.%X*X^.[.%X1XrXrX7X,X<X,XQ.J.z.1.Q ..d.u.  ",
"                  u.! S S U ` ` S ` @.h.h.) h J =.C u 2 , u ' -.^.E @ 0 @.0.h z | v.[.:XXX.X|..X$X7X1X<X,X,X%XY.L.J.B.1.} ;.M.C.",
"                    g p U ` ' ` ) ' ' 8.Q.l.U j ) #.K z p i #.8..XK.j v.1X' C U 9.R.XX%X).^.].XX<XwX,X X%X%X%XR.Q.Q.Q.N.O.O.M.C.",
"                    e j | @.' ' 4.4.4.8.J.Q.h.B h ` | S C M ` F.Y.L.9.8.h.4.8.r.m.~.OX X X).'.%X5X5XwXwX<X<X,X).). X).B.O.O.d.V.",
"                    0 B @.-.@.@.4.4.-.#.K z 2 @ % % t @.E E 8.[.:XQ.>.r.q.9.4.h.r.F.[.*X1X:X5XwX5X5XwX,X X%X<X).OX%X[.L.1.X.2.V.",
"                    k x _ :.-.@.#.#.) 4 % o o o O o @ p ' E 4.*X5XXXh.l.].v.#.` l.OX5X5X5X1X7XwX1X,X2X,X*X1X X[.OX$XXXL.u.O.2.M.",
"                      J K -.8.=.#.4.#.' 8 * @ @ = B _ j M M +.~.$X$Xs.t.5X].l.b.'.5X5X1X1X2X5X<X*X%X'.).,X*XP.H.'.XX%XL.u.O.;.d.",
"                        f E ` _ ' r.r.r.f.@.S B U ` [ z B p K n.[.b.x $.pXyXXX[.*X5X*X}.'.}. XR.R.'.R.).,XR.l.R.<X5X,X^.N.;./ ,.",
"                          p M B U 8.q.q.#.) B j j B _ K ` L j L | h - F.pXiX5X2X*X X`.R.`.R.U.n.c.e.c.U.'.H.I.,XtX7X3X).J.s./ ( ",
"                            0 p h K _ ` U U K C S ' q.@.*.8.=.B 4 = - J.<X*XXX^.U.U.R.}.].R.I.k.t.n.U.}.U.P.}.7XyXtX3XXXL.N.;./ ",
"                              6 i p S _ ' #.=.' ` 8.8.J U 4.(.$XQ.@.H 5.J.^.I.I.m.Y.`.|.].I.n.t.n.}.}.R.P.'.=X7XyXtX,X^.B.l.,.I ",
"                                p a h S [ -.q.q.t.q.@.| 4.q.L.OX.XL.v.v.P.P.P.I.R.`.}.|.].U.n.n.R.`.m.-.I. X,X7XtX6X X^.B.B.2./ ",
"                                8 h M M L ' 4.4.=.@.0.q.l.F.S.L.l.t.r.n.n.P.U.`.].}. X].P.P.U.]. X}.c.e.'.,X,X7XyX7X3X[.L.F.W.2.",
"                                  f h M F _ +.+.=.q.0.h.l.l.r.t.-.e.9.c.P.U.`.}.|.}.].R.P.I. X%X X'.l.-.}.,X%X3XyXyX5X,X).T.|.(.",
"                                  6 z K z z B S _ @.=.=.-.-.#.-.-.-.c.n.P.U.`.}. X}.R.m.P.'.*X,X'.I.=.@.'.,X%X,X6X7X6X,X[.).).#X",
"                                    w S ) ) K C ) S C Z ) ` [ -.-.c.c.n.n.P.].|.|.].P.I.'.,X,XOX'.l._ F m.,X,X<X,X<X,X X).^.R.(.",
"                                    1 f S U U ' ) L ) _ [ #.-.9.t.c.k.n.P.~.^.].R.R.R.}.%X3X*X).Y.q.C p =.}.,X1X,X,X X).T.H.b.J.",
"                                      1 B K ` ' ' ' @.#.=.-.-.8.e.r.b.n.Y.^.^.m.P.].%X3X1X%X%X^.p.@.x 5 Y ).,X,X|.).R.m.z.z.P.T.",
"                                        0 C _ ) E ! @.#.#.-.4.8.t.r.z.m.H.Y.R.R.R. X=X=XOX).Q.l.' D f 1 v z.|.'.Y.n.z.b.b.b.T.<X",
"                                          y n S S ` ' @.#.=.-.q.r.r.l.z.I.'. X X X|.|.].^.Y.x.q.P f 6     l.m.m.m.-.c.b.L.J.J.<X",
"                                              y v Q ` | @.@.=.4.0.w.l.m.U.'. X}.].R.H.l.s.7.O.Y H p       u.4.h.z.e.-.b.b.l.l.J.",
"                                                    I Q / #.=.>.>.q.e.l.n.m.I.P.b.q.| ` ! D D k p y       &.=.B.r.&.=.w.<.0.b.^.",
"                                                          Y Y E ` [ *.4.e.c.I.}.}.b._ x k d r 6 y           | u.4._ F @.=.l.x.A.",
"                                                            y n U _ =.c.P.R.%X6XtXtX[.@.r 0 1               T >.r.s.@.&. .| 1.l.",
"                                                                v H =.b.U. X3XtXiXiXiX1X..                    | =.w.=.>.' ! ^ / ",
"                                                                  x &.l.I.OX3X7XyXuXyX7X@X                    Y ' ! ! H H Q H Y ",
"                                                                    $.l.Y.|.3X6X7X7X7X7XeX                          k           ",
"                                                                    o.q.L..X*X3X,X1X3X5XwXwX                                    ",
"                                                                      1.B.Q.OX%X%X,XwXrX5X_.                                    ",
"                                                                      ;.>.l._.|.).).1XrXrXwX                                    ",
"                                                                        ( 1.F.Q.Q.^.*XwXrX5X@X                                  ",
"                                                                        Q 1.z.B.Q.^.$XrXyX9X+X                                  ",
"                                                                        &.Q.L.J.J.Y.).2XrXrX+X                                  ",
"                                                                        ;.x.x.s.J.L.L.Q.$XwX@X                                  ",
"                                                                        1.;.:.u.F.Q.^.Q.L._.u.                                  ",
"                                                                        1.u.u.;.j..X).).).W.                                    ",
"                                                                          ..d.1.u.@X$X$X$XW.                                    ",
"                                                                            ..,.2._._._.W.u.                                    ",
"                                                                              x Y 2.E.W.d.W                                     ",
"                                                                                d b ( ,.(                                       ",
"                                                                                    0 b y                                       "
};
