/* XPM */
static char *_fd08eca22ce4a8ef3dbc5e03b919592MyGtDyGa8USCpkon[] = {
/* columns rows colors chars-per-pixel */
"64 64 238 2 ",
"   c #171207",
".  c #26180C",
"X  c #241C15",
"o  c #2D2413",
"O  c #2B231C",
"+  c #272219",
"@  c #32251C",
"#  c #332A1C",
"$  c #372817",
"%  c #2E2A22",
"&  c #2C2521",
"*  c #332C24",
"=  c #3A2D22",
"-  c #342D2B",
";  c #392E28",
":  c #3C3224",
">  c #35322D",
",  c #3B332B",
"<  c #393529",
"1  c #3D3631",
"2  c #3E3A35",
"3  c #3A383B",
"4  c #4B3719",
"5  c #412F25",
"6  c #42362C",
"7  c #433A2D",
"8  c #48392B",
"9  c #433C34",
"0  c #4B3E34",
"q  c #433E3B",
"w  c #403635",
"e  c #4B4235",
"r  c #45423B",
"t  c #4C443B",
"y  c #49473A",
"u  c #524236",
"i  c #52453B",
"p  c #534B3D",
"a  c #5A4D3D",
"s  c #5A4A39",
"d  c #59513D",
"f  c #63533C",
"g  c #665336",
"h  c #4B4641",
"j  c #4E4A44",
"k  c #4B4A45",
"l  c #544C43",
"z  c #5A4D44",
"x  c #524D4A",
"c  c #5B5344",
"v  c #55524C",
"b  c #5C544B",
"n  c #595447",
"m  c #5A5652",
"M  c #5C5A54",
"N  c #5B5A59",
"B  c #645444",
"V  c #62554C",
"C  c #635A4D",
"Z  c #6B5E4D",
"A  c #6A5C46",
"S  c #635C53",
"D  c #6B5D53",
"F  c #635E59",
"G  c #645953",
"H  c #6F614B",
"J  c #73654D",
"K  c #6B6254",
"L  c #65625C",
"P  c #6B645B",
"I  c #696659",
"U  c #726454",
"Y  c #756954",
"T  c #72655B",
"R  c #736A5C",
"E  c #7A6D5C",
"W  c #7A6D52",
"Q  c #7B735D",
"!  c #78705B",
"~  c #666561",
"^  c #6A6662",
"/  c #6D6A63",
"(  c #6E6E69",
")  c #736C63",
"_  c #7A6E63",
"`  c #716E6A",
"'  c #7A6F6B",
"]  c #757065",
"[  c #7B7364",
"{  c #75726B",
"}  c #7B756C",
"|  c #7D796D",
" . c #7D7961",
".. c #797672",
"X. c #7D7A74",
"o. c #7A7975",
"O. c #82755D",
"+. c #89785E",
"@. c #806E56",
"#. c #827464",
"$. c #837A65",
"%. c #8A7B65",
"&. c #83766A",
"*. c #847B6C",
"=. c #8A7C6C",
"-. c #8A7766",
";. c #837C73",
":. c #897E72",
">. c #837E7A",
",. c #7D8079",
"<. c #8C826C",
"1. c #8A8269",
"2. c #93836D",
"3. c #99886E",
"4. c #858275",
"5. c #8C8374",
"6. c #85827C",
"7. c #8B847B",
"8. c #8D897C",
"9. c #8F8975",
"0. c #928574",
"q. c #928975",
"w. c #9B8D75",
"e. c #92857A",
"r. c #948B7C",
"t. c #9A8D7B",
"y. c #988773",
"u. c #9A917E",
"i. c #989179",
"p. c #A4957D",
"a. c #A08F7D",
"s. c #858381",
"d. c #8B8681",
"f. c #8D8A83",
"g. c #8D8C8A",
"h. c #898788",
"j. c #938C83",
"k. c #9B8E83",
"l. c #928E8A",
"z. c #968C86",
"x. c #959184",
"c. c #9B9384",
"v. c #94928B",
"b. c #9B958B",
"n. c #9D998C",
"m. c #9F9A87",
"M. c #959591",
"N. c #9A9691",
"B. c #9D9A93",
"V. c #9D9C99",
"C. c #979890",
"Z. c #8D9190",
"A. c #A29584",
"S. c #A49B84",
"D. c #AA9B83",
"F. c #A1968A",
"G. c #A39B8C",
"H. c #A99C8B",
"J. c #A39C92",
"K. c #A99E92",
"L. c #A29E99",
"P. c #A19692",
"I. c #9EA199",
"U. c #ADA38C",
"Y. c #AAA187",
"T. c #B2A38E",
"R. c #B1AA8F",
"E. c #A5A194",
"W. c #ABA394",
"Q. c #A4A39C",
"!. c #ABA59B",
"~. c #ADA99D",
"^. c #AEA895",
"/. c #B2A592",
"(. c #B3AA95",
"). c #B3A69B",
"_. c #B4AC9C",
"`. c #B9AD9C",
"'. c #BAAC96",
"]. c #B6B19D",
"[. c #BCB29D",
"{. c #BEB18F",
"}. c #A6A5A2",
"|. c #ABA6A1",
" X c #ADABA4",
".X c #AEAEA9",
"XX c #A6A7A6",
"oX c #B3ADA3",
"OX c #B9ADA2",
"+X c #B2AEAB",
"@X c #B8AFA8",
"#X c #B5B1A5",
"$X c #BCB4A4",
"%X c #B4B2AB",
"&X c #BBB5AB",
"*X c #BDB9AD",
"=X c #BDB9A8",
"-X c #B6B4B0",
";X c #BBB6B2",
":X c #BDBAB3",
">X c #BDBCB9",
",X c #B6B8B5",
"<X c #AFB0AD",
"1X c #C1B49D",
"2X c #C2B4A3",
"3X c #C4BAA5",
"4X c #C3BBAC",
"5X c #C9BDAC",
"6X c #C8B9A7",
"7X c #C3BDB3",
"8X c #C9BEB4",
"9X c #C3BEBA",
"0X c #BFC1B6",
"qX c #CAC1AE",
"wX c #C7C1AF",
"eX c #C5C1B4",
"rX c #CAC3B4",
"tX c #CFC9B6",
"yX c #C4C3BB",
"uX c #CAC5BB",
"iX c #CDC9BC",
"pX c #D3CBBB",
"aX c #D4C8B6",
"sX c #D9D1BD",
"dX c #D5C5AB",
"fX c #C9C7C3",
"gX c #CCCBC3",
"hX c #C8C8C4",
"jX c #D4CDC2",
"kX c #D9CFC2",
"lX c #D5D1C5",
"zX c #DAD2C4",
"xX c #DBD6CB",
"cX c #D9D6CA",
"vX c #DCD9D2",
"bX c #E3DACA",
"nX c #E3DED2",
"mX c #E6E2D7",
/* pixels */
"[ R D K R T C ) | >.;.X.| / } 4.e.J.7.d.b.l.f.7.j.8.X.s.s.,.8.4.} G.J.l.6.>.) ` L m D S l >.uX%X#XyX;X0X:X7XeX*X;X;X9XuX:X#X%X%X",
"G.U./.H.A.A.W.!.n.G.b.8.r v x j % O ^ s.6.>.{ I ( o.s.o.f.M 9 7.9 X   + % 9 l M v v j y L >.,X<X.X.X,X#X9X>X;X+X X|. X+XoXeX-X-X",
"t./.T.'.6Xt.E <.^.Y.f.4.E.>.6.l.b.6.}..X.X-X0X>X}.<X-X X-X%Xs.vXgX XX.!.yXuXeXgXxXxXiXxXvX XQ.I.I..X}. XoX!.oXL.I.|.!.Q.].0X~.,X",
"<.5.2.=.W $.Y H.tXwXtXeXv.f.7.J.*XQ.,.x.~. X|.~.<X.X.X~.E.n. X*X0XhXcXfX%XuX7X>X).*XrX*X&X.XQ.I..X*X=X%XoX&X%X4X=X*X%X%X#X X:X,X",
"5X5X5X].'.0._.qXuXeX*XeXx.n.~._._.n.x.j.G.:X:XeX~.v.E.~.x.W.eXuXhXyXgXgXvXgX!.{ [ k.:.7.oXb.+X-X,X,XfX9XfX9X7X;X$X7X7X9XuX*X0XyX",
"5X4X3XqXsX_.=.aXuXeXlXuX9.x.m.=X_._.rX_.!._._.:Xx.C.4.m.W.zXn.x.d.,.b.n.j.j.>.l.W.j.P.8X@Xz.b.d.,.X.{ ;.;.} ;.:.} ) ;.) n S / { ",
"H.H./.(.`.).*.rXeXuXrXeX_.$X_.W.H.c.F.!.~.x.C.!.0XwX XeXyXwXi.# l I 8 : 6 K z.xXxXrX8X7XjXP.* d.H.c.x.5.Q [ f A A K ) P K P ) s.",
"%.y.p.a.w.D.<.$XrXrXeX#XB.#XQ.!._.~.W.~.E.|..XXX].0XeX0X0X#Xx.9.Y.W.u.2.u.q.).8X%XyX7X8X7XOXP.&.d.;.[ ) e.H./.T./.P.J.!.eX:XyXrX",
"rXaX5XaXpXzXw.T.yX0XrX~.b.:X%X@Xb.~.#XOX&X#X%X#XG.| B b < &.wXuXeX#XiXnXjX7X#X!.:X8X7X7X7XL.kXl D [ ' ;._ z c b C U z E 8X$X8X4X",
"p.p.D.D.(.2X%.1.wXwX4X].9.4X$X_.&X4X*X@XOX&X;X;X=X4XeXb.C #XuX7XoX!.=X4X7X4XW.!.7X@X8X7X4XOXOX;.:.k.r._ >.T D S D ) _ ^ ;.b.J.|.",
"0.#.O.#.$.r.=.$ * 0 # : 5.1.5.q.0.e.:.e.r.j.6.>.j.oX_.J.u.x.} 4.c 4.r.7.4.x.b.r.~.=X9XgXhXgXyXgX8X7XrXOX$X:X>XeX9X9XyXfXfXlXgXgX",
"T.6XdXdXaXaXdXg V U 0._ G.F.(.).OX2Xr.R ) } ' F l n y 9 *.;.7.X.r.b.v.B.v.{ n.J..XI.,.B.I.v.s.X.n G ) / 7XgXyX&X>X+X.X+X,XL.}.+X",
"3.3.w.D.q.q.[.w.J W Y O.'.`.$X2X[.'.H.!.J.x.x.E.7.P &.P b.b.b.B..X%X<X<X>X>X Xg.2 q q w w > % w v 2 & + h h w 1 w 1 9 , q , , h ",
"1X2.B @.c.i.q.T.1Xp.p.W <.(._._.'.W.G.lXcXmXnXnXjXzXbXoXe.K.b.!.*XyX%X#X}.V.d.g.( 7.6.) ) } >.j.&X.X>.~ 1 - ; h 9 i p t 0 t G V ",
"w.+.A @.i.Y.i.p.Y.R.R.S.2.t.G.W.U.).G.8XiXrXiXzXxXzXkXpXP.*XrX8X#Xb.R P G V P j.gXlX*X%Xn.G._.OX!.$XrX!.b.J.!.f.k.b.j.b.;.;.L.J.",
"'.1XT.1X[.].wX[.=X'.*X4XrXrX7XrX1X5Xr.) j.j.5.=.e.5.5.OX_.5.;.P.S.=.S.Y.U.S.H.3X#X`.#X6Xr.S.t.@.-.=.-.E 4XeX*X*X*X).OX&X%X9X9X@X",
"1X1XD.t.qX_.^.].$X=X$X*X$XOX_.]. X=X} e.7X2X7X&X8X8XuXgXkXuX%X@XyXhXgXhXhXeXgX,X-X X-X|.B.>XfXfX,X,XfX:X;X.XXXXXQ.Q.Q.Q.J.Q.#X*X",
"2.-.B o 8 s A C e e e i 0 e e 7 r * z i 6 z t , i l V D V G V m o.( { X.v.XX|.,.6.) t % ~.gX%XL.%X>X9X7X7.6.h.h.}.Q.L.Q.%X:X*X%X",
"sXkX8XE.n.!.eX:XE.C C G.OX7XeX*X_.oX).z.e.e.F.:.D U B D #.#.D #.yXyXgXyX>X0XfX#X+ - t P k r 1 j v v t r B.|.M.M.M.l.v.C.b.v.v.b.",
"B O.#.E [ K c D R | *.r.8.x.8.l.n.!.G.F.).0.e.A.k.e.j.c.k.k.:.V ( ~ ~ N ~ L M L x S s.z.v ^ v.L.B...../ 3 - 3 N ~ N ~ o.6.f.v.B.",
"f B W B a Q E =.-.#.D 8 : 7 z K ! 5.c.u.t.c.A.2.q.R  .c.&. .*.=.Z.f.8.l.B.B.b.Q.9X&X%XoX7Xv r o.N.&X%X8XL.N.6.}.%X,X>XeX7X*X:XeX",
"2.O.w.1XT.c.A.t.F.W.t.Z t.S.).lXrXaX3X=X5XrXpXtX4X$XX.| I y = c ,X:X:X:X%X#X X XH.m.c.J.x.C t d e i d b n l I 7 j b t 9 l l 9 q ",
"p.T.-.+.t.t.H.A.S.U.R.S.U.U.U.wX~.eXeX].$X0X$XrXrXrX~.:XeX#XG.E.R ) R ] ;.d.f.>.r.K.!.b.J.gXnXvXjXuX8XrXwX~._.j.E.oXW.r.5.&.) [ ",
"T.1X3XT.U.(.'.].6XqX'.D.@.O.J 1.u.E.#X].#X%X*X=X*X7XrX:XeXjXnX_.J.&Xn.j.8.4.| 7.>.;.g.g.>.~ M / >.g.z...) j.L.!.uXwX8XrX5X6X8X8X",
"1X1X'.T.3XwX4X=XW w.R.U.[.wXJ d C ! n.~.#X~.E.x.u. .R R R T P t ( } 4.x.V.B.Q.B.C.s.j. Xo.,.Q.I.B..XoXl.} %X&X%X,X>X;X%X9X>X:XeX",
"'.2X'.6X'.[.2X(.5.].wXpXtXwXtXsXtXtXrX*XlXuXwXuXrX].x.o 6 # $ 8 Q.,X%X%X9X#X;X9X>X9X>X+X,XQ..X.X XoX:X XQ.7X&X@X0XeX*X%X;X#X.X0X",
"A.T.T.D.D.D.S.q.W.iXeXeX X~.iX%XG.#XiXiX&X&XeXrX~._.wXE.d t.`.H.6.g.C.f.z.B.v.L.7X X X+X+X/ x v p e y t } x.f.E.I.b.B.#X_.^.].=X",
"4 4 4 f B B C 5.E.$X=X=XE.E. Xn.j.E.yX:X~.@X8XJ.F.W.4XrX`.G./.a.~.yX*XyX7X8X4XL.L.@X@X&XE.~.;X} [ V 0 K f.} { k ; 7 7 6 8 i u i ",
"g g @.a.T.A.H.5.e Q 0.*.F.J.r.z.x.;.) &.;.;.&.;.r.] ! ] c.E O.Z b.%XOX#X%X!.b.b.;.b.F.b.E.4.} X.$._ K &.!.B.v.7.F b V D G D D V ",
"6X2X'.F.t.`.'.U.B 4 $ o $ . : i 6 = = * , ; < a R ;.K b K C K D 9 ;.| } [ R ;.K J.F.).oX#X~.!.E.G.OX!.oX7X:XyXQ.l.M.J.L.v.d.v.oX",
"D.T.H.:.A.xXbXsXbXaX5X6X3X(.5XaXH B [ l c s b p : 7 , % 9.;.4.&.;.5.5.j.;.[ 9.;.j.;.P j.j._ ;.P t b G ] ;XgXfX:XL.J.b.7.7.b.!.B.",
"D./.H.).R l H ] _ =.R Q [ *.5.^.1X-.y.3X`.$XW.wXK.;.c.P | 8.} ;.c.K.G.J._.!.n.} & - - - > X X & r -   r g...s.g.e.:.:.:.j.z.F.P.",
"2.2.y.0.s = # o $ o : y e K ] R ! W.<.aXaXpXzXaXaXaXlX).:.P.b.J.!.&Xb.j.5.5.) ) I 5. .m b T P :.n.j.b C &.{ ;.4.(.(.U.T.a.2.+.2.",
"[.'.(.`.3X=X~.=X].'.$XwX=X_._.W.c.4X_.4.A.S.c.^.].U.(.^.0.c.c.U.r.R y c t 0 e &.=X].F.u.$. .1.5.&.W.G.e.4X4X@XoXyX,X%X>X*X&X:X:X",
"[.H.W.(.(.].$XG.E.$XW.].=X^.=X4XwX*X8._ F.r.r.=.$.9.<.W.W.*.I c.u.[ m.S.c.5.r.^.x.x.x.^.K 1.Q H H E Z T P.j.l.s.f.g.C.v.l.v.v.N.",
"(.(.W.6X2X'.$X].E.W.$X(.$X_.W.$X=X4Xr.b &.*.5.0.F.F.P.!.b.W.).j.G._.J.E._._.$Xb.|.b.C.4.b.*X:X#X^.).4XJ.7 M >./ 5.7.p 1 l l c C ",
"`.U.#.y.6X6X$X'.$XH.U.]._.6X^.(.$X$X^.p e 8 e # # = : 6 , 6 6 0 { L / } X.b.l./ t 1 = + b. Xd.d.b.~.J.|.oX%XfX.XN.;XX.>.,X+XyXyX",
"'.$X).2.-.2.T.2X].6XU.W./.].4X3X$X5XF.e.A.e.w.t.R E Z C E [ Z D %X-X;XXX}.|.%Xl.  o e d < % < r k k j h >.v.E.b.P.d.>. X7.' } l.",
"$.5.A.0.0._ Q &.[ [ &.K K b b p t z [ G.r.4.4.q.u.t.0.$.*.5. .I P S y l l e e ,.G._.].$Xx.r.x.x.N > * 9 O X + . @ X z = * = 5 s ",
"8X&X$X4X%XoX@X!.@X$X@X7Xy O 2 j e : 7.8X&Xc.n.~.%X$X%X@X$X&X7X=XJ.).r.K l d u.[.|.!. X#X#X~.~.#X8.c 4.E.z.D z T e.>.oX;.0 i l 6 ",
"e.&.#.;.' ' >.d.} ' 8.7.: o = : < < s p d b 7 y d p p b p e 9 , 7 8 Y t. .c K C n L { 6.v.v.d.6.4.4.G.^._.E.!.~.)._.].#XH.F.k.D ",
"o # o o = @ @ * @ @ @ @ J.jXlX:X_._._.^.c.c.Q *.q.! d b p 7 < 2 K e.k.$X6XF._ c w * O O > , 2 r P J.P.b.J.J.J.J.L.E.!.~.oX_.P.G.",
"u s 8 8 0 0 0 5 8 0 w T &.) ) 6.c.r.r. .5.E.m.$X].=X].W.F.c.9.1.W.$X'.).^.OXrX*X4X^.r.R K Y x._._.t.<.u.i.a.5.w.A.H.D.S.U.D.a.p.",
"a.D.2.@.+.J f A &.E R R P j.4.x.b.!.} b W.~.W.].].(.(.$X$X].]._.5.x.c.q.c.9.9.*. .!  .Q Q 1.q.1.1.O.$.1.J Y w.Y Y O.E 2.y.2.w.p.",
"OX).oX$X2X).).K.G.H.).5.9.#XOXE.Q.7X&XG.*X^.K.`.$X_.]._.W.).$XE.b.W.^.W.$X_.~.!.L.Q. XE.n.E.~.W.E.#X X].H.l.OXb.j.b.4.e.4.[ 4.r.",
"9.:.#.;.e.0.r.F.u.S.c.c.l p l c t z e I j.c.G.G.b.F.!.OX!.!.*X@Xc._.^.U.).4X$X#X*X&X#X#X~. X#X!.Q.oX!.!.9.m b b P ) D z V P | 9.",
"N.N.L.).L.P.|.oX_.oX~.#Xb.!.P a 8 = C ;.K V e < 0 t t 6 9 t l e 5.2X!.u.t.r.r.W.W.G.x.n.n.G.n.W.C.E.E.W.5.e R 8.0.0.:.e.e.&.*.:.",
") ) P P _ ' ` } o.` } { L 4.&.=.U c &.k.4.*.c 8 6 6 9 t l = # , c K C T R p c 1 ; > ; 9 2 w > > 2 - % # T } 5.&.*.;.} } G F z.l.",
"#.*.E } 5.4.5.r.r.r.5.j.4.4.9.m.G.t.5.&.*.c I K L R b K I e r j.M.v.s.g.v.g.Q.~ M { 6.^ 6...} d.x. .I m ;.L.g.g.l.g.j.7.;.f.;.v.",
"_.!.W.c.J.W.!.b.c.E.W.L.!. X~.W.E. Xg.B.XXI.M.XX!.Q.1.,.4.n. .{ o.6.,.{ M ( ( 6.C.x.8.m.x.9.4.5.,.8.G.X.{ 8.6.l.7.>.6.) ) 7X|.;X",
"K S K G I P l P K r K 7.} ) ) P 8.6.N ( Z.V.<X}.XXh.,.hX9X>X<XXXQ..X~.Q.XXQ.%Xv.} 7.b.g.,.| 8.| ;.7.n.8.P L j x v l l G ) ^ ....",
"m D c C p p K P ) 5.t t v S K l 7 b G # % % % 3 r > k { { o.^ L I N M K M m F L k v k k N v ^ ^ M L P ) S R ] ] J.7X7X7X7X+X|.|.",
"$X].5X=X=X$X$X_.(.2XG.r.5.F.W.E.A.5.#.P K b 7 t q m j O * 1 > P ] | / L M ,.P X.Q.B.P M M M M L 6.6.} &.;.L.~.b.B.#X|.#X7X9XyXfX",
"W.'.'.`.$X$X).^.$XQ s C U Z E R R R P c.J.B.oX~. X0Xb.( L I L B.#X.X|.Q.Q.l.C.E.v.Q.f.( ( ,.o.L M ) { >.7.G.~.Q.J.v.Q.B.d.X.6.6.",
"%.:.c.G.0.G.c.=.V Z $.%.#.=.%.5.k.F.4.L 6.8.4.|  .,.i.u.5.4.4.E.XX}.Q.Q.I.B.Q.}.}.V.M.( o.s.h.,...} } | j.!.!. X X#X}.XXv 1 q l ",
"T E R =.*.R :.&.&.G.A.t.-.t.t.=.0.<.[ R 5.1.q.r.x.v.i.x.b.C.I.L o.o.{ { o.~ ^ } / } 6.I ( o./ { g.6.s.) 7.&X+X;X-X%X.XV.` l.P. X",
"g s g H Y Z a f d O.O.1.W ! Q W J Y Y 1.v.v.d.s.X.6.{ { o.....2 ~ o.M m / t   y v S / b.B.M.h.s.6.s.d.f.S m L m m x v 3 y P I C ",
"Z E #.T #.5.#.[ r.u.c.n.G.m.i.E.b.H.n.x.v.b.x.g.g.d.6.x y v ( v.N h f.E.8.~._.~.J.Q.W.Q.C.X.v.v.g.l.l.C.7.......~ ( ( o.,.d.j.6.",
"=.&._ :.&.} 8.P o.o.6.d.l.J.8.d.j.P.d.6.6.4.d.8.s.l.x.` d.l.f.} j.;.8.j.x.;.[ X.5.) D v ) B.}.Q.Q.B.N.V.L.N.L.L.I.C.I.V.P.N.v.N.",
"D G C C V C G l r y < 9 ; > 1 < , w & > q 9 r # ; > , 4.| C V l < r 6 # l r.!.E.L.!.n.!.6.^ L N ~ N L ` F F ..h x 8.6.{ ` ` >.f.",
"-.E &.&.&.| *.m.m.G.W.^.I < p B b z P T ) P C _ _ Z T K.`.`.OXr.z V b C C P P S G M P F x > q q h h k 2 h ~ m ` m - q j h k q q ",
"/.'.(.(.(.$X3X].$X_.).].%.$.$.=.#.5.J.c.7.z.j.P.F.k.r.t.0.5.r.5.j.F.J.c.G = * O ; > V l n s.V. X<X,X<X}.}.|.|.@Xz.>.>.d.l.l.7.&.",
"0.r.G.W.).r.C V b R &.8.K u.5.i.<.[ ) ;.6.} ) P 5.j.;.c.5.c.5.| q.5.x.q.q.5.) _ | 5.&.4.) 7.Q.L.Q..X.X.X+X|.L.b.z x F ^ ` ' P / ",
". . @ 0 , O , h h l ) 4.v.J.j.8.j.b.B.v.v.J.8.L ] } x.j.n.b.n.x.K q.<.1.<.$.c.5.r.5. .[ [ ) x.X.h.v.M.v.h.o.&.q i V D F ) ;.d.f."
};
